<?xml version="1.0" encoding="utf-8"?>
<!-- Generator: Adobe Illustrator 22.0.0, SVG Export Plug-In . SVG Version: 6.00 Build 0)  -->
<svg version="1.1" id="图层_1" xmlns="http://www.w3.org/2000/svg" xmlns:xlink="http://www.w3.org/1999/xlink" x="0px" y="0px"
	 viewBox="0 0 1404.8 810.2" style="enable-background:new 0 0 1404.8 810.2;" xml:space="preserve">
<style type="text/css">
	.st0{fill:#FFFFFF;stroke:#000000;stroke-miterlimit:10;}
	.st1{fill:#FFFFFF;fill-opacity:0.5;stroke:#000000;}
	.st2{font-family:'ArialMT';}
	.st3{font-size:14px;}
	.st4{fill:#FFB8B8;stroke:#000000;}
	.st5{fill:#FFC9C9;stroke:#000000;}
	.st6{fill:#FFB7B7;stroke:#000000;}
	.st7{fill:#FFFFFF;stroke:#000000;}
	.st8{fill:#E2E2FF;stroke:#000000;}
	.st9{fill:#D3D3FF;stroke:#000000;}
	.st10{fill:#C9C9FF;stroke:#000000;}
	.st11{fill:#FFABAB;stroke:#000000;}
	.st12{fill:#FF7E7E;stroke:#000000;}
	.st13{fill:#FF8D8D;stroke:#000000;}
	.st14{fill:#FF8C8C;stroke:#000000;}
	.st15{fill:#FFFFFF;fill-opacity:0;stroke:#000000;stroke-opacity:0;}
	.st16{fill:#FF6363;stroke:#000000;}
	.st17{fill:#FF6A6A;stroke:#000000;}
	.st18{fill:#FF9797;stroke:#000000;}
	.st19{fill:#FFFFFF;fill-opacity:0.5;stroke:#CCCCCC;}
	.st20{fill:#B8B8FF;stroke:#000000;}
	.st21{fill:#FFE2E2;stroke:#000000;}
	.st22{fill:#FFD3D3;stroke:#000000;}
	.st23{fill:#D4D4FF;stroke:#000000;}
	.st24{fill:none;stroke:#000000;stroke-width:2;}
	.st25{fill:none;stroke:#000000;}
	.st26{font-family:'Arial-BoldMT';}
	.st27{font-size:18px;}
</style>
<g>
	<rect x="203" y="61.4" class="st0" width="622" height="433"/>
	<path class="st1" d="M420.9,173.5h173c3.3,0,6,2.7,6,6v40c0,3.3-2.7,6-6,6h-173c-3.3,0-6-2.7-6-6v-40
		C414.9,176.2,417.6,173.5,420.9,173.5z"/>
	<text transform="matrix(1 0 0 1 486.8339 189.4739)" class="st2 st3">MDM2</text>
	<rect x="419.9" y="195.5" class="st4" width="43.8" height="25"/>
	<text transform="matrix(1 0 0 1 425.8192 212.6406)" class="st2 st3">3.5%</text>
	<rect x="463.7" y="195.5" class="st5" width="43.8" height="25"/>
	<text transform="matrix(1 0 0 1 469.5692 212.6406)" class="st2 st3">2.3%</text>
	<rect x="507.4" y="195.5" class="st4" width="43.8" height="25"/>
	<text transform="matrix(1 0 0 1 513.3192 212.6406)" class="st2 st3">3.4%</text>
	<rect x="551.2" y="195.5" class="st6" width="43.8" height="25"/>
	<text transform="matrix(1 0 0 1 557.0692 212.6406)" class="st2 st3">3.5%</text>
	<path class="st1" d="M533.9,258.5h173c3.3,0,6,2.7,6,6v40c0,3.3-2.7,6-6,6h-173c-3.3,0-6-2.7-6-6v-40
		C527.9,261.2,530.6,258.5,533.9,258.5z"/>
	<text transform="matrix(1 0 0 1 592.0477 274.4739)" class="st2 st3">CDKN1A</text>
	<rect x="532.9" y="280.5" class="st7" width="43.8" height="25"/>
	<text transform="matrix(1 0 0 1 538.8192 297.6406)" class="st2 st3">0.0%</text>
	<rect x="576.7" y="280.5" class="st8" width="43.8" height="25"/>
	<text transform="matrix(1 0 0 1 582.5692 297.6406)" class="st2 st3">1.2%</text>
	<rect x="620.4" y="280.5" class="st7" width="43.8" height="25"/>
	<text transform="matrix(1 0 0 1 626.3192 297.6406)" class="st2 st3">0.0%</text>
	<rect x="664.2" y="280.5" class="st9" width="43.8" height="25"/>
	<text transform="matrix(1 0 0 1 670.0692 297.6406)" class="st2 st3">1.8%</text>
	<path class="st1" d="M632.9,347.5h173c3.3,0,6,2.7,6,6v40c0,3.3-2.7,6-6,6h-173c-3.3,0-6-2.7-6-6v-40
		C626.9,350.2,629.6,347.5,632.9,347.5z"/>
	<text transform="matrix(1 0 0 1 695.3304 363.4739)" class="st2 st3">FBXW7</text>
	<rect x="631.9" y="369.5" class="st10" width="43.8" height="25"/>
	<text transform="matrix(1 0 0 1 637.8192 386.6406)" class="st2 st3">2.3%</text>
	<rect x="675.7" y="369.5" class="st10" width="43.8" height="25"/>
	<text transform="matrix(1 0 0 1 681.5692 386.6406)" class="st2 st3">2.3%</text>
	<rect x="719.4" y="369.5" class="st7" width="43.8" height="25"/>
	<text transform="matrix(1 0 0 1 725.3192 386.6406)" class="st2 st3">0.0%</text>
	<rect x="763.2" y="369.5" class="st7" width="43.8" height="25"/>
	<text transform="matrix(1 0 0 1 769.0692 386.6406)" class="st2 st3">0.0%</text>
	<path class="st1" d="M226.9,258.5h173c3.3,0,6,2.7,6,6v40c0,3.3-2.7,6-6,6h-173c-3.3,0-6-2.7-6-6v-40
		C220.9,261.2,223.6,258.5,226.9,258.5z"/>
	<text transform="matrix(1 0 0 1 289.3304 274.4739)" class="st2 st3">CCND1</text>
	<rect x="225.9" y="280.5" class="st11" width="43.8" height="25"/>
	<text transform="matrix(1 0 0 1 231.8192 297.6406)" class="st2 st3">4.7%</text>
	<rect x="269.7" y="280.5" class="st12" width="43.8" height="25"/>
	<text transform="matrix(1 0 0 1 271.5692 297.6406)" class="st2 st3">11.6%</text>
	<rect x="313.4" y="280.5" class="st13" width="43.8" height="25"/>
	<text transform="matrix(1 0 0 1 319.3192 297.6406)" class="st2 st3">8.6%</text>
	<rect x="357.2" y="280.5" class="st14" width="43.8" height="25"/>
	<text transform="matrix(1 0 0 1 363.0692 297.6406)" class="st2 st3">8.8%</text>
	<rect x="430.4" y="444.5" class="st15" width="156" height="24"/>
	<text transform="matrix(1 0 0 1 439.972 461.4739)" class="st2 st3">Cell cycle progression</text>
	<path class="st1" d="M421.9,347.5h173c3.3,0,6,2.7,6,6v40c0,3.3-2.7,6-6,6h-173c-3.3,0-6-2.7-6-6v-40
		C415.9,350.2,418.6,347.5,421.9,347.5z"/>
	<text transform="matrix(1 0 0 1 484.7167 363.4739)" class="st2 st3">CCNE1</text>
	<rect x="420.9" y="369.5" class="st11" width="43.8" height="25"/>
	<text transform="matrix(1 0 0 1 426.8192 386.6406)" class="st2 st3">4.7%</text>
	<rect x="464.7" y="369.5" class="st16" width="43.8" height="25"/>
	<text transform="matrix(1 0 0 1 466.5692 386.6406)" class="st2 st3">19.8%</text>
	<rect x="508.4" y="369.5" class="st17" width="43.8" height="25"/>
	<text transform="matrix(1 0 0 1 510.3192 386.6406)" class="st2 st3">17.2%</text>
	<rect x="552.2" y="369.5" class="st18" width="43.8" height="25"/>
	<text transform="matrix(1 0 0 1 558.0692 386.6406)" class="st2 st3">7.0%</text>
	<rect x="744.4" y="272.5" class="st15" width="78" height="24"/>
	<text transform="matrix(1 0 0 1 752.703 289.4739)" class="st2 st3">Apoptosis</text>
	<rect x="220.9" y="347.5" class="st19" width="169.5" height="52"/>
	<text transform="matrix(0.955 0 0 1 301.0132 363.4742)" class="st2 st3">RB1</text>
	<rect x="224.3" y="370" class="st20" width="41.8" height="25"/>
	<text transform="matrix(0.955 0 0 1 229.8789 387.1407)" class="st2 st3">3.5%</text>
	<rect x="266.1" y="370" class="st20" width="41.8" height="25"/>
	<text transform="matrix(0.955 0 0 1 271.6611 387.1407)" class="st2 st3">3.5%</text>
	<rect x="304" y="370" class="st7" width="41.8" height="25"/>
	<text transform="matrix(0.955 0 0 1 313.4443 387.1407)" class="st2 st3">0.0%</text>
	<rect x="345.8" y="370" class="st9" width="41.8" height="25"/>
	<text transform="matrix(0.955 0 0 1 355.2271 387.1407)" class="st2 st3">1.8%</text>
	<path class="st1" d="M226.9,430.5h173c3.3,0,6,2.7,6,6v40c0,3.3-2.7,6-6,6h-173c-3.3,0-6-2.7-6-6v-40
		C220.9,433.2,223.6,430.5,226.9,430.5z"/>
	<text transform="matrix(1 0 0 1 296.7133 446.4739)" class="st2 st3">E2F3</text>
	<rect x="225.9" y="452.5" class="st7" width="43.8" height="25"/>
	<text transform="matrix(1 0 0 1 231.8192 469.6406)" class="st2 st3">0.0%</text>
	<rect x="269.7" y="452.5" class="st21" width="43.8" height="25"/>
	<text transform="matrix(1 0 0 1 275.5692 469.6406)" class="st2 st3">1.2%</text>
	<rect x="313.4" y="452.5" class="st7" width="43.8" height="25"/>
	<text transform="matrix(1 0 0 1 319.3192 469.6406)" class="st2 st3">0.0%</text>
	<rect x="357.2" y="452.5" class="st22" width="43.8" height="25"/>
	<text transform="matrix(1 0 0 1 363.0692 469.6406)" class="st2 st3">1.8%</text>
	<path class="st1" d="M226.9,173.5h173c3.3,0,6,2.7,6,6v40c0,3.3-2.7,6-6,6h-173c-3.3,0-6-2.7-6-6v-40
		C220.9,176.2,223.6,173.5,226.9,173.5z"/>
	<text transform="matrix(1 0 0 1 285.0477 189.4739)" class="st2 st3">CDKN2A</text>
	<rect x="225.9" y="195.5" class="st8" width="43.8" height="25"/>
	<text transform="matrix(1 0 0 1 231.8192 212.6406)" class="st2 st3">1.2%</text>
	<rect x="269.7" y="195.5" class="st7" width="43.8" height="25"/>
	<text transform="matrix(1 0 0 1 275.5692 212.6406)" class="st2 st3">0.0%</text>
	<rect x="313.4" y="195.5" class="st7" width="43.8" height="25"/>
	<text transform="matrix(1 0 0 1 319.3192 212.6406)" class="st2 st3">0.0%</text>
	<rect x="357.2" y="195.5" class="st7" width="43.8" height="25"/>
	<text transform="matrix(1 0 0 1 363.0692 212.6406)" class="st2 st3">0.0%</text>
	<path class="st1" d="M612.9,173.5h173c3.3,0,6,2.7,6,6v40c0,3.3-2.7,6-6,6h-173c-3.3,0-6-2.7-6-6v-40
		C606.9,176.2,609.6,173.5,612.9,173.5z"/>
	<text transform="matrix(1 0 0 1 682.7133 189.4739)" class="st2 st3">TP53</text>
	<rect x="611.9" y="195.5" class="st7" width="43.8" height="25"/>
	<text transform="matrix(1 0 0 1 617.8192 212.6406)" class="st2 st3">0.0%</text>
	<rect x="655.7" y="195.5" class="st7" width="43.8" height="25"/>
	<text transform="matrix(1 0 0 1 661.5692 212.6406)" class="st2 st3">0.0%</text>
	<rect x="699.4" y="195.5" class="st7" width="43.8" height="25"/>
	<text transform="matrix(1 0 0 1 705.3192 212.6406)" class="st2 st3">0.0%</text>
	<rect x="743.2" y="195.5" class="st9" width="43.8" height="25"/>
	<text transform="matrix(1 0 0 1 749.0692 212.6406)" class="st2 st3">1.8%</text>
	<path class="st1" d="M612.9,79.5h173c3.3,0,6,2.7,6,6v40c0,3.3-2.7,6-6,6h-173c-3.3,0-6-2.7-6-6v-40
		C606.9,82.2,609.6,79.5,612.9,79.5z"/>
	<text transform="matrix(1 0 0 1 685.1879 95.4739)" class="st2 st3">ATM</text>
	<rect x="611.9" y="101.5" class="st7" width="43.8" height="25"/>
	<text transform="matrix(1 0 0 1 617.8192 118.6406)" class="st2 st3">0.0%</text>
	<rect x="655.7" y="101.5" class="st8" width="43.8" height="25"/>
	<text transform="matrix(1 0 0 1 661.5692 118.6406)" class="st2 st3">1.2%</text>
	<rect x="699.4" y="101.5" class="st23" width="43.8" height="25"/>
	<text transform="matrix(1 0 0 1 705.3192 118.6406)" class="st2 st3">1.7%</text>
	<rect x="743.2" y="101.5" class="st7" width="43.8" height="25"/>
	<text transform="matrix(1 0 0 1 749.0692 118.6406)" class="st2 st3">0.0%</text>
	<line class="st24" x1="602.9" y1="369.5" x2="602.9" y2="377.5"/>
	<line class="st25" x1="626.9" y1="373.5" x2="602.9" y2="373.5"/>
	<line class="st24" x1="309.4" y1="428.5" x2="317.4" y2="428.5"/>
	<line class="st25" x1="313.4" y1="399.5" x2="313.4" y2="428.5"/>
	<line class="st24" x1="309.4" y1="345.5" x2="317.4" y2="345.5"/>
	<line class="st25" x1="313.4" y1="310.5" x2="313.4" y2="345.5"/>
	<line class="st24" x1="309.4" y1="256.5" x2="317.4" y2="256.5"/>
	<line class="st25" x1="313.4" y1="225.5" x2="313.4" y2="256.5"/>
	<polygon points="607.9,195.5 607.9,203.5 599.9,199.5 	"/>
	<line class="st25" x1="606.9" y1="199.5" x2="607.9" y2="199.5"/>
	<line class="st24" x1="412.9" y1="203.5" x2="412.9" y2="195.5"/>
	<line class="st25" x1="405.9" y1="199.5" x2="412.9" y2="199.5"/>
	<line class="st24" x1="540.2" y1="343.1" x2="545.2" y2="349.4"/>
	<line class="st25" x1="587.7" y1="310.5" x2="542.7" y2="346.2"/>
	<polygon points="647.1,249.9 653,255.3 644.6,258.5 	"/>
	<line class="st25" x1="675.3" y1="225.5" x2="650.1" y2="252.6"/>
	<polygon points="763.1,269.6 768.8,264 771.6,272.5 	"/>
	<line class="st25" x1="725.1" y1="225.5" x2="766" y2="266.8"/>
	<polygon points="695.4,165.5 703.4,165.5 699.4,173.5 	"/>
	<line class="st25" x1="699.4" y1="131.5" x2="699.4" y2="165.5"/>
	<line class="st24" x1="390.4" y1="369.5" x2="390.4" y2="377.5"/>
	<line class="st25" x1="415.9" y1="373.5" x2="390.4" y2="373.5"/>
	<polygon points="422.4,460.5 422.4,452.5 430.4,456.5 	"/>
	<line class="st25" x1="405.9" y1="456.5" x2="422.4" y2="456.5"/>
	<line class="st24" x1="604.9" y1="203.5" x2="604.9" y2="195.5"/>
	<line class="st25" x1="599.9" y1="199.5" x2="604.9" y2="199.5"/>
	<text transform="matrix(1 0 0 1 218 91.3898)" class="st26 st27">Cell Cycle pathway</text>
</g>
</svg>
