<?xml version="1.0" encoding="utf-8"?>
<!-- Generator: Adobe Illustrator 22.0.0, SVG Export Plug-In . SVG Version: 6.00 Build 0)  -->
<svg version="1.1" id="图层_1" xmlns="http://www.w3.org/2000/svg" xmlns:xlink="http://www.w3.org/1999/xlink" x="0px" y="0px"
	 viewBox="0 0 1683.6 971" style="enable-background:new 0 0 1683.6 971;" xml:space="preserve">
<style type="text/css">
	.st0{fill:#FFFFFF;stroke:#000000;stroke-miterlimit:10;}
	.st1{fill:#FFFFFF;fill-opacity:0.5;stroke:#000000;}
	.st2{font-family:'ArialMT';}
	.st3{font-size:14px;}
	.st4{fill:#E2E2FF;stroke:#000000;}
	.st5{fill:#FFFFFF;stroke:#000000;}
	.st6{fill:#FFFFFF;fill-opacity:0;stroke:#000000;stroke-opacity:0;}
	.st7{fill:#FFFFFF;fill-opacity:0.5;stroke:#CCCCCC;}
	.st8{fill:#FFD3D3;stroke:#000000;}
	.st9{fill:#FFA0A0;stroke:#000000;}
	.st10{fill:#FF5858;stroke:#000000;}
	.st11{fill:#FF8484;stroke:#000000;}
	.st12{fill:#FF7B7B;stroke:#000000;}
	.st13{fill:#FFB8B8;stroke:#000000;}
	.st14{fill:#FFD4D4;stroke:#000000;}
	.st15{fill:#FFA5A5;stroke:#000000;}
	.st16{fill:#FFABAB;stroke:#000000;}
	.st17{fill:#FF9797;stroke:#000000;}
	.st18{fill:#FFB7B7;stroke:#000000;}
	.st19{fill:#B8B8FF;stroke:#000000;}
	.st20{fill:#D3D3FF;stroke:#000000;}
	.st21{fill:#FFE2E2;stroke:#000000;}
	.st22{fill:#FF9898;stroke:#000000;}
	.st23{fill:none;stroke:#000000;stroke-width:2;}
	.st24{fill:none;stroke:#000000;}
	.st25{font-family:'Arial-BoldMT';}
	.st26{font-size:18px;}
</style>
<g>
	<rect x="291.1" y="49" class="st0" width="847.3" height="633.6"/>
	<path class="st1" d="M427.6,363.6h173c3.3,0,6,2.7,6,6v40c0,3.3-2.7,6-6,6h-173c-3.3,0-6-2.7-6-6v-40
		C421.6,366.3,424.3,363.6,427.6,363.6z"/>
	<text transform="matrix(1 0 0 1 500.8855 379.6203)" class="st2 st3">NF1</text>
	<rect x="426.6" y="385.6" class="st4" width="43.8" height="25"/>
	<text transform="matrix(1 0 0 1 432.4846 402.787)" class="st2 st3">1.2%</text>
	<rect x="470.4" y="385.6" class="st4" width="43.8" height="25"/>
	<text transform="matrix(1 0 0 1 476.2346 402.787)" class="st2 st3">1.2%</text>
	<rect x="514.1" y="385.6" class="st5" width="43.8" height="25"/>
	<text transform="matrix(1 0 0 1 519.9846 402.787)" class="st2 st3">0.0%</text>
	<rect x="557.9" y="385.6" class="st5" width="43.8" height="25"/>
	<text transform="matrix(1 0 0 1 563.7346 402.787)" class="st2 st3">0.0%</text>
	<rect x="909.5" y="635.6" class="st6" width="72" height="24"/>
	<text transform="matrix(1 0 0 1 920.5752 652.6024)" class="st2 st3">Survival</text>
	<rect x="315.6" y="94.3" class="st7" width="405.8" height="133.9"/>
	<text transform="matrix(1 0 0 1 690.577 244.1952)" class="st2 st3">RAS</text>
	<path class="st1" d="M327.1,104.3h173c3.3,0,6,2.7,6,6v40c0,3.3-2.7,6-6,6h-173c-3.3,0-6-2.7-6-6v-40
		C321.1,107,323.8,104.3,327.1,104.3z"/>
	<text transform="matrix(1 0 0 1 390.6491 120.3375)" class="st2 st3">FGFR3</text>
	<rect x="326.1" y="126.3" class="st5" width="43.8" height="25"/>
	<text transform="matrix(1 0 0 1 331.9689 143.5041)" class="st2 st3">0.0%</text>
	<rect x="369.8" y="126.3" class="st5" width="43.8" height="25"/>
	<text transform="matrix(1 0 0 1 375.7189 143.5041)" class="st2 st3">0.0%</text>
	<rect x="413.6" y="126.3" class="st5" width="43.8" height="25"/>
	<text transform="matrix(1 0 0 1 419.4689 143.5041)" class="st2 st3">0.0%</text>
	<rect x="457.3" y="126.3" class="st8" width="43.8" height="25"/>
	<text transform="matrix(1 0 0 1 463.2189 143.5041)" class="st2 st3">1.8%</text>
	<path class="st1" d="M528.1,102h173c3.3,0,6,2.7,6,6v40c0,3.3-2.7,6-6,6h-173c-3.3,0-6-2.7-6-6v-40
		C522.1,104.7,524.8,102,528.1,102z"/>
	<text transform="matrix(1 0 0 1 591.661 118.0492)" class="st2 st3">ERBB2</text>
	<rect x="527.1" y="124" class="st9" width="43.8" height="25"/>
	<text transform="matrix(1 0 0 1 532.9911 141.2159)" class="st2 st3">5.8%</text>
	<rect x="570.9" y="124" class="st10" width="43.8" height="25"/>
	<text transform="matrix(1 0 0 1 572.7411 141.2159)" class="st2 st3">24.4%</text>
	<rect x="614.6" y="124" class="st11" width="43.8" height="25"/>
	<text transform="matrix(1 0 0 1 616.4911 141.2159)" class="st2 st3">10.3%</text>
	<rect x="658.4" y="124" class="st12" width="43.7" height="25"/>
	<text transform="matrix(1 0 0 1 660.2411 141.2159)" class="st2 st3">12.3%</text>
	<path class="st1" d="M528.7,170.7h173c3.3,0,6,2.7,6,6v40c0,3.3-2.7,6-6,6h-173c-3.3,0-6-2.7-6-6v-40
		C522.7,173.4,525.3,170.7,528.7,170.7z"/>
	<text transform="matrix(1 0 0 1 592.2073 186.6953)" class="st2 st3">ERBB3</text>
	<rect x="527.7" y="192.7" class="st5" width="43.8" height="25"/>
	<text transform="matrix(1 0 0 1 533.5374 209.862)" class="st2 st3">0.0%</text>
	<rect x="571.4" y="192.7" class="st13" width="43.8" height="25"/>
	<text transform="matrix(1 0 0 1 577.2874 209.862)" class="st2 st3">3.5%</text>
	<rect x="615.2" y="192.7" class="st14" width="43.8" height="25"/>
	<text transform="matrix(1 0 0 1 621.0374 209.862)" class="st2 st3">1.7%</text>
	<rect x="658.9" y="192.7" class="st15" width="43.8" height="25"/>
	<text transform="matrix(1 0 0 1 664.7874 209.862)" class="st2 st3">5.3%</text>
	<path class="st1" d="M328.5,169.6h173c3.3,0,6,2.7,6,6v40c0,3.3-2.7,6-6,6h-173c-3.3,0-6-2.7-6-6v-40
		C322.5,172.2,325.2,169.6,328.5,169.6z"/>
	<text transform="matrix(1 0 0 1 395.5513 185.5512)" class="st2 st3">EGFR</text>
	<rect x="327.5" y="191.6" class="st16" width="43.8" height="25"/>
	<text transform="matrix(1 0 0 1 333.3712 208.7179)" class="st2 st3">4.7%</text>
	<rect x="371.2" y="191.6" class="st17" width="43.8" height="25"/>
	<text transform="matrix(1 0 0 1 377.1212 208.7179)" class="st2 st3">7.0%</text>
	<rect x="415" y="191.6" class="st14" width="43.7" height="25"/>
	<text transform="matrix(1 0 0 1 420.8712 208.7179)" class="st2 st3">1.7%</text>
	<rect x="458.7" y="191.6" class="st18" width="43.8" height="25"/>
	<text transform="matrix(1 0 0 1 464.6212 208.7179)" class="st2 st3">3.5%</text>
	<path class="st1" d="M942.6,273.9h173c3.3,0,6,2.7,6,6v40c0,3.3-2.7,6-6,6h-173c-3.3,0-6-2.7-6-6v-40
		C936.6,276.5,939.2,273.9,942.6,273.9z"/>
	<text transform="matrix(1 0 0 1 1010.3834 289.8568)" class="st2 st3">PTEN</text>
	<rect x="941.6" y="295.9" class="st5" width="43.8" height="25"/>
	<text transform="matrix(1 0 0 1 947.4274 313.0235)" class="st2 st3">0.0%</text>
	<rect x="985.3" y="295.9" class="st5" width="43.8" height="25"/>
	<text transform="matrix(1 0 0 1 991.1774 313.0235)" class="st2 st3">0.0%</text>
	<rect x="1029.1" y="295.9" class="st5" width="43.8" height="25"/>
	<text transform="matrix(1 0 0 1 1034.9274 313.0235)" class="st2 st3">0.0%</text>
	<rect x="1072.8" y="295.9" class="st5" width="43.8" height="25"/>
	<text transform="matrix(1 0 0 1 1078.6774 313.0235)" class="st2 st3">0.0%</text>
	<path class="st1" d="M428.3,426.1h173c3.3,0,6,2.7,6,6v40c0,3.3-2.7,6-6,6h-173c-3.3,0-6-2.7-6-6v-40
		C422.3,428.7,425,426.1,428.3,426.1z"/>
	<text transform="matrix(1 0 0 1 493.8979 442.0611)" class="st2 st3">STK11</text>
	<rect x="427.3" y="448.1" class="st5" width="43.8" height="25"/>
	<text transform="matrix(1 0 0 1 433.1533 465.2277)" class="st2 st3">0.0%</text>
	<rect x="471" y="448.1" class="st4" width="43.8" height="25"/>
	<text transform="matrix(1 0 0 1 476.9033 465.2277)" class="st2 st3">1.2%</text>
	<rect x="514.8" y="448.1" class="st5" width="43.8" height="25"/>
	<text transform="matrix(1 0 0 1 520.6533 465.2277)" class="st2 st3">0.0%</text>
	<rect x="558.5" y="448.1" class="st5" width="43.8" height="25"/>
	<text transform="matrix(1 0 0 1 564.4033 465.2277)" class="st2 st3">0.0%</text>
	<path class="st1" d="M741.3,177.4h173c3.3,0,6,2.7,6,6v40c0,3.3-2.7,6-6,6h-173c-3.3,0-6-2.7-6-6v-40
		C735.3,180.1,737.9,177.4,741.3,177.4z"/>
	<text transform="matrix(1 0 0 1 802.8516 193.377)" class="st2 st3">INPP4B</text>
	<rect x="740.3" y="199.4" class="st19" width="43.8" height="25"/>
	<text transform="matrix(1 0 0 1 746.1265 216.5437)" class="st2 st3">3.5%</text>
	<rect x="784" y="199.4" class="st4" width="43.8" height="25"/>
	<text transform="matrix(1 0 0 1 789.8765 216.5437)" class="st2 st3">1.2%</text>
	<rect x="827.8" y="199.4" class="st5" width="43.8" height="25"/>
	<text transform="matrix(1 0 0 1 833.6265 216.5437)" class="st2 st3">0.0%</text>
	<rect x="871.5" y="199.4" class="st20" width="43.8" height="25"/>
	<text transform="matrix(1 0 0 1 877.3765 216.5437)" class="st2 st3">1.8%</text>
	<path class="st1" d="M744.8,539h173c3.3,0,6,2.7,6,6v40c0,3.3-2.7,6-6,6h-173c-3.3,0-6-2.7-6-6v-40
		C738.8,541.7,741.5,539,744.8,539z"/>
	<text transform="matrix(1 0 0 1 810.8299 554.9644)" class="st2 st3">MTOR</text>
	<rect x="743.8" y="561" class="st5" width="43.8" height="25"/>
	<text transform="matrix(1 0 0 1 749.6854 578.1311)" class="st2 st3">0.0%</text>
	<rect x="787.6" y="561" class="st13" width="43.8" height="25"/>
	<text transform="matrix(1 0 0 1 793.4354 578.1311)" class="st2 st3">3.5%</text>
	<rect x="831.3" y="561" class="st14" width="43.8" height="25"/>
	<text transform="matrix(1 0 0 1 837.1854 578.1311)" class="st2 st3">1.7%</text>
	<rect x="875.1" y="561" class="st5" width="43.8" height="25"/>
	<text transform="matrix(1 0 0 1 880.9354 578.1311)" class="st2 st3">0.0%</text>
	<rect x="695.7" y="639.4" class="st6" width="102" height="24"/>
	<text transform="matrix(1 0 0 1 709.3602 656.3658)" class="st2 st3">Proliferation</text>
	<rect x="317.5" y="268.5" class="st7" width="391.2" height="64.1"/>
	<text transform="matrix(1 0 0 1 680.7872 349.1325)" class="st2 st3">RAS</text>
	<path class="st1" d="M333.6,275.1h173c3.3,0,6,2.7,6,6v40c0,3.3-2.7,6-6,6h-173c-3.3,0-6-2.7-6-6v-40
		C327.6,277.8,330.3,275.1,333.6,275.1z"/>
	<text transform="matrix(1 0 0 1 400.6698 291.145)" class="st2 st3">HRAS</text>
	<rect x="332.6" y="297.1" class="st21" width="43.8" height="25"/>
	<text transform="matrix(1 0 0 1 338.4931 314.3117)" class="st2 st3">1.2%</text>
	<rect x="376.4" y="297.1" class="st5" width="43.8" height="25"/>
	<text transform="matrix(1 0 0 1 382.2431 314.3117)" class="st2 st3">0.0%</text>
	<rect x="420.1" y="297.1" class="st14" width="43.8" height="25"/>
	<text transform="matrix(1 0 0 1 425.9931 314.3117)" class="st2 st3">1.7%</text>
	<rect x="463.9" y="297.1" class="st5" width="43.8" height="25"/>
	<text transform="matrix(1 0 0 1 469.7431 314.3117)" class="st2 st3">0.0%</text>
	<path class="st1" d="M524.2,274h173c3.3,0,6,2.7,6,6v40c0,3.3-2.7,6-6,6h-173c-3.3,0-6-2.7-6-6v-40
		C518.2,276.7,520.9,274,524.2,274z"/>
	<text transform="matrix(1 0 0 1 591.2811 290.0009)" class="st2 st3">NRAS</text>
	<rect x="523.2" y="296" class="st21" width="43.8" height="25"/>
	<text transform="matrix(1 0 0 1 529.1043 313.1676)" class="st2 st3">1.2%</text>
	<rect x="567" y="296" class="st5" width="43.8" height="25"/>
	<text transform="matrix(1 0 0 1 572.8543 313.1676)" class="st2 st3">0.0%</text>
	<rect x="610.7" y="296" class="st5" width="43.8" height="25"/>
	<text transform="matrix(1 0 0 1 616.6043 313.1676)" class="st2 st3">0.0%</text>
	<rect x="654.5" y="296" class="st5" width="43.8" height="25"/>
	<text transform="matrix(1 0 0 1 660.3543 313.1676)" class="st2 st3">0.0%</text>
	<rect x="732.6" y="394.6" class="st7" width="196" height="115"/>
	<text transform="matrix(1 0 0 1 900.6772 525.5615)" class="st2 st3">TSC</text>
	<path class="st1" d="M744.1,452.1h173c3.3,0,6,2.7,6,6v40c0,3.3-2.7,6-6,6h-173c-3.3,0-6-2.7-6-6v-40
		C738.1,454.7,740.8,452.1,744.1,452.1z"/>
	<text transform="matrix(1 0 0 1 812.6971 468.0611)" class="st2 st3">TSC2</text>
	<rect x="743.1" y="474.1" class="st5" width="43.8" height="25"/>
	<text transform="matrix(1 0 0 1 748.9652 491.2277)" class="st2 st3">0.0%</text>
	<rect x="786.8" y="474.1" class="st5" width="43.8" height="25"/>
	<text transform="matrix(1 0 0 1 792.7152 491.2277)" class="st2 st3">0.0%</text>
	<rect x="830.6" y="474.1" class="st5" width="43.8" height="25"/>
	<text transform="matrix(1 0 0 1 836.4652 491.2277)" class="st2 st3">0.0%</text>
	<rect x="874.3" y="474.1" class="st5" width="43.8" height="25"/>
	<text transform="matrix(1 0 0 1 880.2152 491.2277)" class="st2 st3">0.0%</text>
	<path class="st1" d="M744.1,400.1h173c3.3,0,6,2.7,6,6v40c0,3.3-2.7,6-6,6h-173c-3.3,0-6-2.7-6-6v-40
		C738.1,402.7,740.8,400.1,744.1,400.1z"/>
	<text transform="matrix(1 0 0 1 812.6971 416.0611)" class="st2 st3">TSC1</text>
	<rect x="743.1" y="422.1" class="st5" width="43.8" height="25"/>
	<text transform="matrix(1 0 0 1 748.9652 439.2277)" class="st2 st3">0.0%</text>
	<rect x="786.8" y="422.1" class="st5" width="43.8" height="25"/>
	<text transform="matrix(1 0 0 1 792.7152 439.2277)" class="st2 st3">0.0%</text>
	<rect x="830.6" y="422.1" class="st5" width="43.8" height="25"/>
	<text transform="matrix(1 0 0 1 836.4652 439.2277)" class="st2 st3">0.0%</text>
	<rect x="874.3" y="422.1" class="st20" width="43.8" height="25"/>
	<text transform="matrix(1 0 0 1 880.2152 439.2277)" class="st2 st3">1.8%</text>
	<path class="st1" d="M740.6,273.9h173c3.3,0,6,2.7,6,6v40c0,3.3-2.7,6-6,6h-173c-3.3,0-6-2.7-6-6v-40
		C734.6,276.5,737.2,273.9,740.6,273.9z"/>
	<text transform="matrix(1 0 0 1 802.1525 289.8568)" class="st2 st3">PIK3CA</text>
	<rect x="739.6" y="295.9" class="st9" width="43.8" height="25"/>
	<text transform="matrix(1 0 0 1 745.4274 313.0235)" class="st2 st3">5.8%</text>
	<rect x="783.3" y="295.9" class="st13" width="43.8" height="25"/>
	<text transform="matrix(1 0 0 1 789.1774 313.0235)" class="st2 st3">3.5%</text>
	<rect x="827.1" y="295.9" class="st22" width="43.8" height="25"/>
	<text transform="matrix(1 0 0 1 832.9274 313.0235)" class="st2 st3">6.9%</text>
	<rect x="870.8" y="295.9" class="st15" width="43.8" height="25"/>
	<text transform="matrix(1 0 0 1 876.6774 313.0235)" class="st2 st3">5.3%</text>
	<line class="st23" x1="921.6" y1="295.9" x2="921.6" y2="303.9"/>
	<line class="st24" x1="936.6" y1="299.9" x2="921.6" y2="299.9"/>
	<line class="st23" x1="827" y1="392.5" x2="835" y2="392.6"/>
	<line class="st24" x1="831.3" y1="327.1" x2="831" y2="392.6"/>
	<line class="st23" x1="827.1" y1="537" x2="835.1" y2="536.9"/>
	<line class="st24" x1="831" y1="509.6" x2="831.1" y2="537"/>
	<polygon points="726.6,304.1 726.5,296.1 734.6,300.1 	"/>
	<line class="st24" x1="708.7" y1="300.1" x2="726.6" y2="300.1"/>
	<line class="st23" x1="823.3" y1="271.8" x2="831.3" y2="271.9"/>
	<line class="st24" x1="827.6" y1="229.4" x2="827.3" y2="271.9"/>
	<polygon points="724.5,457.5 724.7,449.5 732.6,453.6 	"/>
	<line class="st24" x1="607.3" y1="452.8" x2="728.6" y2="453.1"/>
	<polygon points="510.7,260.4 518.7,260.7 514.4,268.5 	"/>
	<line class="st24" x1="515.9" y1="228.2" x2="514.7" y2="260.5"/>
	<polygon points="761.2,630.9 766.9,636.4 758.5,639.4 	"/>
	<line class="st24" x1="805.9" y1="591" x2="764.1" y2="633.6"/>
	<polygon points="920.1,634.2 924.8,627.7 928.9,635.6 	"/>
	<line class="st24" x1="867.2" y1="591" x2="922.4" y2="630.9"/>
	<line class="st23" x1="517.5" y1="334.6" x2="509.5" y2="334.7"/>
	<line class="st24" x1="513.8" y1="363.6" x2="513.5" y2="334.6"/>
	<text transform="matrix(1 0 0 1 316 76.5564)" class="st25 st26">Hippo pathway</text>
</g>
</svg>
