<?xml version="1.0" encoding="utf-8"?>
<!-- Generator: Adobe Illustrator 22.0.0, SVG Export Plug-In . SVG Version: 6.00 Build 0)  -->
<svg version="1.1" id="图层_1" xmlns="http://www.w3.org/2000/svg" xmlns:xlink="http://www.w3.org/1999/xlink" x="0px" y="0px"
	 viewBox="0 0 1818.2 1048.7" style="enable-background:new 0 0 1818.2 1048.7;" xml:space="preserve">
<style type="text/css">
	.st0{fill:#FFFFFF;stroke:#000000;stroke-miterlimit:10;}
	.st1{fill:#FFFFFF;fill-opacity:0;stroke:#000000;stroke-opacity:0;}
	.st2{font-family:'ArialMT';}
	.st3{font-size:14px;}
	.st4{fill:#FFFFFF;fill-opacity:0.5;stroke:#000000;}
	.st5{fill:#FFE2E2;stroke:#000000;}
	.st6{fill:#FFD4D4;stroke:#000000;}
	.st7{fill:#FFFFFF;stroke:#000000;}
	.st8{fill:#FF7979;stroke:#000000;}
	.st9{fill:#FF7575;stroke:#000000;}
	.st10{fill:#FF7C7C;stroke:#000000;}
	.st11{fill:#FF7B7B;stroke:#000000;}
	.st12{fill:#D4D4FF;stroke:#000000;}
	.st13{fill:#D3D3FF;stroke:#000000;}
	.st14{fill:#FFABAB;stroke:#000000;}
	.st15{fill:#FFD3D3;stroke:#000000;}
	.st16{fill:#E2E2FF;stroke:#000000;}
	.st17{fill:#B7B7FF;stroke:#000000;}
	.st18{fill:#FFB8B8;stroke:#000000;}
	.st19{fill:none;stroke:#000000;}
	.st20{fill:none;stroke:#000000;stroke-width:2;}
	.st21{font-family:'Arial-BoldMT';}
	.st22{font-size:18px;}
</style>
<g>
	<rect x="439.5" y="233.4" class="st0" width="769" height="511"/>
	<rect x="437.3" y="628.5" class="st1" width="246" height="24"/>
	<text transform="matrix(1 0 0 1 450.9224 645.4922)" class="st2 st3">Cell growth, proliferation, apoptosis</text>
	<rect x="692.8" y="262.2" class="st4" width="398.4" height="67"/>
	<text transform="matrix(1 0 0 1 965.3961 345.2521)" class="st2 st3">MYC/MAX Complex</text>
	<path class="st4" d="M906.7,271.8h173c3.3,0,6,2.7,6,6v40c0,3.3-2.7,6-6,6h-173c-3.3,0-6-2.7-6-6v-40
		C900.7,274.4,903.4,271.8,906.7,271.8z"/>
	<text transform="matrix(1 0 0 1 973.7159 287.7521)" class="st2 st3">MYCL</text>
	<rect x="905.7" y="293.8" class="st5" width="43.8" height="25"/>
	<text transform="matrix(1 0 0 1 911.5392 310.9188)" class="st2 st3">1.2%</text>
	<rect x="949.4" y="293.8" class="st5" width="43.8" height="25"/>
	<text transform="matrix(1 0 0 1 955.2892 310.9188)" class="st2 st3">1.2%</text>
	<rect x="993.2" y="293.8" class="st6" width="43.8" height="25"/>
	<text transform="matrix(1 0 0 1 999.0392 310.9188)" class="st2 st3">1.7%</text>
	<rect x="1036.9" y="293.8" class="st7" width="43.8" height="25"/>
	<text transform="matrix(1 0 0 1 1042.7892 310.9188)" class="st2 st3">0.0%</text>
	<path class="st4" d="M704.3,267.7h173c3.3,0,6,2.7,6,6v40c0,3.3-2.7,6-6,6h-173c-3.3,0-6-2.7-6-6v-40
		C698.3,270.4,701,267.7,704.3,267.7z"/>
	<text transform="matrix(1 0 0 1 775.2455 283.7153)" class="st2 st3">MYC</text>
	<rect x="703.3" y="289.7" class="st8" width="43.8" height="25"/>
	<text transform="matrix(1 0 0 1 705.1757 306.882)" class="st2 st3">12.8%</text>
	<rect x="747.1" y="289.7" class="st9" width="43.8" height="25"/>
	<text transform="matrix(1 0 0 1 748.9257 306.882)" class="st2 st3">14.0%</text>
	<rect x="790.8" y="289.7" class="st10" width="43.8" height="25"/>
	<text transform="matrix(1 0 0 1 792.6757 306.882)" class="st2 st3">12.1%</text>
	<rect x="834.6" y="289.7" class="st11" width="43.8" height="25"/>
	<text transform="matrix(1 0 0 1 836.4257 306.882)" class="st2 st3">12.3%</text>
	<rect x="797.1" y="362.5" class="st4" width="196" height="63"/>
	<text transform="matrix(1 0 0 1 863.88 441.4692)" class="st2 st3">MAX/MGA Complex</text>
	<path class="st4" d="M808.6,368h173c3.3,0,6,2.7,6,6v40c0,3.3-2.7,6-6,6h-173c-3.3,0-6-2.7-6-6v-40
		C802.6,370.7,805.2,368,808.6,368z"/>
	<text transform="matrix(1 0 0 1 879.8828 383.9691)" class="st2 st3">MAX</text>
	<rect x="807.6" y="390" class="st7" width="43.8" height="25"/>
	<text transform="matrix(1 0 0 1 813.4268 407.1357)" class="st2 st3">0.0%</text>
	<rect x="851.3" y="390" class="st7" width="43.8" height="25"/>
	<text transform="matrix(1 0 0 1 857.1768 407.1357)" class="st2 st3">0.0%</text>
	<rect x="895.1" y="390" class="st12" width="43.8" height="25"/>
	<text transform="matrix(1 0 0 1 900.9268 407.1357)" class="st2 st3">1.7%</text>
	<rect x="938.8" y="390" class="st13" width="43.8" height="25"/>
	<text transform="matrix(1 0 0 1 944.6768 407.1357)" class="st2 st3">1.8%</text>
	<rect x="711" y="567.5" class="st4" width="397.7" height="146"/>
	<text transform="matrix(1 0 0 1 965.9286 729.4429)" class="st2 st3">MLX/MONDO Complex</text>
	<path class="st4" d="M917.3,655.2h173c3.3,0,6,2.7,6,6v40c0,3.3-2.7,6-6,6h-173c-3.3,0-6-2.7-6-6v-40
		C911.3,657.9,914,655.2,917.3,655.2z"/>
	<text transform="matrix(1 0 0 1 978.9036 671.2335)" class="st2 st3">MLXIPL</text>
	<rect x="916.3" y="677.2" class="st7" width="43.8" height="25"/>
	<text transform="matrix(1 0 0 1 922.1785 694.4001)" class="st2 st3">0.0%</text>
	<rect x="960.1" y="677.2" class="st14" width="43.8" height="25"/>
	<text transform="matrix(1 0 0 1 965.9285 694.4001)" class="st2 st3">4.7%</text>
	<rect x="1003.8" y="677.2" class="st6" width="43.8" height="25"/>
	<text transform="matrix(1 0 0 1 1009.6785 694.4001)" class="st2 st3">1.7%</text>
	<rect x="1047.6" y="677.2" class="st15" width="43.8" height="25"/>
	<text transform="matrix(1 0 0 1 1053.4285 694.4001)" class="st2 st3">1.8%</text>
	<path class="st4" d="M727.8,655.9h173c3.3,0,6,2.7,6,6v40c0,3.3-2.7,6-6,6h-173c-3.3,0-6-2.7-6-6v-40
		C721.8,658.6,724.4,655.9,727.8,655.9z"/>
	<text transform="matrix(1 0 0 1 793.2482 671.9432)" class="st2 st3">MLXIP</text>
	<rect x="726.8" y="677.9" class="st7" width="43.8" height="25"/>
	<text transform="matrix(1 0 0 1 732.63 695.1099)" class="st2 st3">0.0%</text>
	<rect x="770.5" y="677.9" class="st5" width="43.8" height="25"/>
	<text transform="matrix(1 0 0 1 776.38 695.1099)" class="st2 st3">1.2%</text>
	<rect x="814.3" y="677.9" class="st6" width="43.8" height="25"/>
	<text transform="matrix(1 0 0 1 820.13 695.1099)" class="st2 st3">1.7%</text>
	<rect x="858" y="677.9" class="st7" width="43.8" height="25"/>
	<text transform="matrix(1 0 0 1 863.88 695.1099)" class="st2 st3">0.0%</text>
	<path class="st4" d="M813.3,573h173c3.3,0,6,2.7,6,6v40c0,3.3-2.7,6-6,6h-173c-3.3,0-6-2.7-6-6v-40C807.3,575.7,810,573,813.3,573z
		"/>
	<text transform="matrix(1 0 0 1 885.3781 588.9755)" class="st2 st3">MLX</text>
	<rect x="812.3" y="595" class="st16" width="43.8" height="25"/>
	<text transform="matrix(1 0 0 1 818.1461 612.1422)" class="st2 st3">1.2%</text>
	<rect x="856" y="595" class="st7" width="43.8" height="25"/>
	<text transform="matrix(1 0 0 1 861.8961 612.1422)" class="st2 st3">0.0%</text>
	<rect x="899.8" y="595" class="st12" width="43.8" height="25"/>
	<text transform="matrix(1 0 0 1 905.6461 612.1422)" class="st2 st3">1.7%</text>
	<rect x="943.5" y="595" class="st17" width="43.8" height="25"/>
	<text transform="matrix(1 0 0 1 949.3961 612.1422)" class="st2 st3">3.5%</text>
	<rect x="612.2" y="463.5" class="st4" width="579.9" height="64"/>
	<text transform="matrix(1 0 0 1 1063.4236 543.5031)" class="st2 st3">MAX/MXD Complex</text>
	<path class="st4" d="M623.7,470h173c3.3,0,6,2.7,6,6v40c0,3.3-2.7,6-6,6h-173c-3.3,0-6-2.7-6-6v-40
		C617.7,472.7,620.4,470,623.7,470z"/>
	<text transform="matrix(1 0 0 1 690.7791 486.0036)" class="st2 st3">MXD1</text>
	<rect x="622.7" y="492" class="st7" width="43.8" height="25"/>
	<text transform="matrix(1 0 0 1 628.6023 509.1702)" class="st2 st3">0.0%</text>
	<rect x="666.5" y="492" class="st5" width="43.8" height="25"/>
	<text transform="matrix(1 0 0 1 672.3524 509.1702)" class="st2 st3">1.2%</text>
	<rect x="710.2" y="492" class="st18" width="43.8" height="25"/>
	<text transform="matrix(1 0 0 1 716.1024 509.1702)" class="st2 st3">3.4%</text>
	<rect x="754" y="492" class="st7" width="43.8" height="25"/>
	<text transform="matrix(1 0 0 1 759.8524 509.1702)" class="st2 st3">0.0%</text>
	<path class="st4" d="M1006.6,469h173c3.3,0,6,2.7,6,6v40c0,3.3-2.7,6-6,6h-173c-3.3,0-6-2.7-6-6v-40
		C1000.6,471.7,1003.2,469,1006.6,469z"/>
	<text transform="matrix(1 0 0 1 1076.7255 484.9758)" class="st2 st3">MXI1</text>
	<rect x="1005.6" y="491" class="st16" width="43.8" height="25"/>
	<text transform="matrix(1 0 0 1 1011.4384 508.1425)" class="st2 st3">1.2%</text>
	<rect x="1049.3" y="491" class="st16" width="43.8" height="25"/>
	<text transform="matrix(1 0 0 1 1055.1884 508.1425)" class="st2 st3">1.2%</text>
	<rect x="1093.1" y="491" class="st7" width="43.8" height="25"/>
	<text transform="matrix(1 0 0 1 1098.9384 508.1425)" class="st2 st3">0.0%</text>
	<rect x="1136.8" y="491" class="st7" width="43.8" height="25"/>
	<text transform="matrix(1 0 0 1 1142.6885 508.1425)" class="st2 st3">0.0%</text>
	<path class="st4" d="M815.3,469h173c3.3,0,6,2.7,6,6v40c0,3.3-2.7,6-6,6h-173c-3.3,0-6-2.7-6-6v-40
		C809.3,471.7,811.9,469,815.3,469z"/>
	<text transform="matrix(1 0 0 1 882.3064 484.9758)" class="st2 st3">MXD3</text>
	<rect x="814.3" y="491" class="st5" width="43.8" height="25"/>
	<text transform="matrix(1 0 0 1 820.1296 508.1425)" class="st2 st3">1.2%</text>
	<rect x="858" y="491" class="st7" width="43.8" height="25"/>
	<text transform="matrix(1 0 0 1 863.8796 508.1425)" class="st2 st3">0.0%</text>
	<rect x="901.8" y="491" class="st7" width="43.8" height="25"/>
	<text transform="matrix(1 0 0 1 907.6296 508.1425)" class="st2 st3">0.0%</text>
	<rect x="945.5" y="491" class="st15" width="43.8" height="25"/>
	<text transform="matrix(1 0 0 1 951.3796 508.1425)" class="st2 st3">1.8%</text>
	<line class="st19" x1="970.9" y1="655.2" x2="932.7" y2="625"/>
	<polygon points="679.6,635.5 680.1,643.5 671.9,640 	"/>
	<line class="st19" x1="710.2" y1="638.4" x2="672.8" y2="639.3"/>
	<line class="st19" x1="841.1" y1="655.9" x2="873" y2="625"/>
	<line class="st20" x1="570.9" y1="627.6" x2="578.9" y2="627.6"/>
	<line class="st19" x1="797" y1="405.9" x2="542.9" y2="409.4"/>
	<line class="st19" x1="543.9" y1="409.6" x2="544.6" y2="626.4"/>
	<line class="st20" x1="541.2" y1="627" x2="549.2" y2="626.9"/>
	<line class="st19" x1="902.2" y1="495.5" x2="813.3" y2="495.1"/>
	<line class="st19" x1="571.8" y1="491.7" x2="574.5" y2="629.1"/>
	<line class="st19" x1="893" y1="329.3" x2="894.2" y2="368"/>
	<line class="st19" x1="903.9" y1="527.5" x2="906" y2="567.5"/>
	<line class="st19" x1="898.1" y1="419.9" x2="898.7" y2="463.5"/>
	<polygon points="491.2,620.7 499.2,620.6 495.3,628.7 	"/>
	<line class="st19" x1="691.1" y1="301.5" x2="492.4" y2="303.9"/>
	<line class="st19" x1="493.9" y1="304.3" x2="494.7" y2="628.7"/>
	<line class="st19" x1="609.2" y1="490.5" x2="571.8" y2="491.5"/>
	<text transform="matrix(1 0 0 1 493.8884 262.2153)" class="st21 st22">Myc pathway</text>
</g>
</svg>
