<?xml version="1.0" encoding="utf-8"?>
<!-- Generator: Adobe Illustrator 22.0.0, SVG Export Plug-In . SVG Version: 6.00 Build 0)  -->
<svg version="1.1" id="图层_1" xmlns="http://www.w3.org/2000/svg" xmlns:xlink="http://www.w3.org/1999/xlink" x="0px" y="0px"
	 viewBox="0 0 1709.4 985.9" style="enable-background:new 0 0 1709.4 985.9;" xml:space="preserve">
<style type="text/css">
	.st0{fill:#FFFFFF;stroke:#000000;stroke-miterlimit:10;}
	.st1{fill:#FFFFFF;fill-opacity:0.5;stroke:#000000;}
	.st2{font-family:'ArialMT';}
	.st3{font-size:14px;}
	.st4{fill:#FFFFFF;stroke:#000000;}
	.st5{fill:#FFE2E2;stroke:#000000;}
	.st6{fill:#E2E2FF;stroke:#000000;}
	.st7{fill:#D4D4FF;stroke:#000000;}
	.st8{fill:#C9C9FF;stroke:#000000;}
	.st9{fill:#FFFFFF;fill-opacity:0.5;stroke:#CCCCCC;}
	.st10{fill:#B8B8FF;stroke:#000000;}
	.st11{fill:#FFC9C9;stroke:#000000;}
	.st12{fill:#FFD4D4;stroke:#000000;}
	.st13{fill:#FFD3D3;stroke:#000000;}
	.st14{fill:#9797FF;stroke:#000000;}
	.st15{fill:#8383FF;stroke:#000000;}
	.st16{fill:#8D8DFF;stroke:#000000;}
	.st17{fill:#A5A5FF;stroke:#000000;}
	.st18{fill:#D3D3FF;stroke:#000000;}
	.st19{fill:#A0A0FF;stroke:#000000;}
	.st20{fill:#FFFFFF;fill-opacity:0;stroke:#000000;stroke-opacity:0;}
	.st21{fill:none;stroke:#000000;}
	.st22{fill:none;stroke:#000000;stroke-width:2;}
	.st23{font-family:'Arial-BoldMT';}
	.st24{font-size:18px;}
</style>
<g>
	<rect x="35" y="127.9" class="st0" width="1372" height="416"/>
	<path class="st1" d="M1203.2,268.4h173c3.3,0,6,2.7,6,6v40c0,3.3-2.7,6-6,6h-173c-3.3,0-6-2.7-6-6v-40
		C1197.2,271.1,1199.9,268.4,1203.2,268.4z"/>
	<text transform="matrix(1 0 0 1 1265.1915 284.4092)" class="st2 st3">NRARP</text>
	<rect x="1202.2" y="290.4" class="st4" width="43.8" height="25"/>
	<text transform="matrix(1 0 0 1 1208.0699 307.5759)" class="st2 st3">0.0%</text>
	<rect x="1245.9" y="290.4" class="st5" width="43.8" height="25"/>
	<text transform="matrix(1 0 0 1 1251.8199 307.5759)" class="st2 st3">1.2%</text>
	<rect x="1289.7" y="290.4" class="st4" width="43.8" height="25"/>
	<text transform="matrix(1 0 0 1 1295.5699 307.5759)" class="st2 st3">0.0%</text>
	<rect x="1333.4" y="290.4" class="st4" width="43.8" height="25"/>
	<text transform="matrix(1 0 0 1 1339.3199 307.5759)" class="st2 st3">0.0%</text>
	<path class="st1" d="M958.8,165.2h173c3.3,0,6,2.7,6,6v40c0,3.3-2.7,6-6,6h-173c-3.3,0-6-2.7-6-6v-40
		C952.8,167.9,955.5,165.2,958.8,165.2z"/>
	<text transform="matrix(1 0 0 1 1027.386 181.2012)" class="st2 st3">CUL1</text>
	<rect x="957.8" y="187.2" class="st4" width="43.8" height="25"/>
	<text transform="matrix(1 0 0 1 963.6575 204.3679)" class="st2 st3">0.0%</text>
	<rect x="1001.5" y="187.2" class="st4" width="43.8" height="25"/>
	<text transform="matrix(1 0 0 1 1007.4075 204.3679)" class="st2 st3">0.0%</text>
	<rect x="1045.3" y="187.2" class="st4" width="43.8" height="25"/>
	<text transform="matrix(1 0 0 1 1051.1575 204.3679)" class="st2 st3">0.0%</text>
	<rect x="1089" y="187.2" class="st4" width="43.8" height="25"/>
	<text transform="matrix(1 0 0 1 1094.9075 204.3679)" class="st2 st3">0.0%</text>
	<rect x="895.5" y="227" class="st1" width="196.6" height="121.5"/>
	<path class="st1" d="M907.6,291.1h173c3.3,0,6,2.7,6,6v40c0,3.3-2.7,6-6,6h-173c-3.3,0-6-2.7-6-6v-40
		C901.6,293.8,904.3,291.1,907.6,291.1z"/>
	<text transform="matrix(1 0 0 1 965.3431 307.0734)" class="st2 st3">CREBBP</text>
	<rect x="906.6" y="313.1" class="st4" width="43.8" height="25"/>
	<text transform="matrix(1 0 0 1 912.5042 330.2401)" class="st2 st3">0.0%</text>
	<rect x="950.4" y="313.1" class="st6" width="43.8" height="25"/>
	<text transform="matrix(1 0 0 1 956.2542 330.2401)" class="st2 st3">1.2%</text>
	<rect x="994.1" y="313.1" class="st4" width="43.7" height="25"/>
	<text transform="matrix(1 0 0 1 1000.0042 330.2401)" class="st2 st3">0.0%</text>
	<rect x="1037.9" y="313.1" class="st4" width="43.8" height="25"/>
	<text transform="matrix(1 0 0 1 1043.7543 330.2401)" class="st2 st3">0.0%</text>
	<path class="st1" d="M907,232.5h173c3.3,0,6,2.7,6,6v40c0,3.3-2.7,6-6,6H907c-3.3,0-6-2.7-6-6v-40C901,235.2,903.7,232.5,907,232.5
		z"/>
	<text transform="matrix(1 0 0 1 971.889 248.5369)" class="st2 st3">KAT2B</text>
	<rect x="906" y="254.5" class="st6" width="43.8" height="25"/>
	<text transform="matrix(1 0 0 1 911.9203 271.7036)" class="st2 st3">1.2%</text>
	<rect x="949.8" y="254.5" class="st6" width="43.8" height="25"/>
	<text transform="matrix(1 0 0 1 955.6703 271.7036)" class="st2 st3">1.2%</text>
	<rect x="993.5" y="254.5" class="st7" width="43.8" height="25"/>
	<text transform="matrix(1 0 0 1 999.4203 271.7036)" class="st2 st3">1.7%</text>
	<rect x="1037.3" y="254.5" class="st4" width="43.8" height="25"/>
	<text transform="matrix(1 0 0 1 1043.1703 271.7036)" class="st2 st3">0.0%</text>
	<path class="st1" d="M67.4,311.5h173c3.3,0,6,2.7,6,6v40c0,3.3-2.7,6-6,6h-173c-3.3,0-6-2.7-6-6v-40
		C61.4,314.1,64.1,311.5,67.4,311.5z"/>
	<text transform="matrix(1 0 0 1 130.532 327.453)" class="st2 st3">CNTN6</text>
	<rect x="66.4" y="333.5" class="st4" width="43.8" height="25"/>
	<text transform="matrix(1 0 0 1 72.2414 350.6196)" class="st2 st3">0.0%</text>
	<rect x="110.1" y="333.5" class="st6" width="43.8" height="25"/>
	<text transform="matrix(1 0 0 1 115.9914 350.6196)" class="st2 st3">1.2%</text>
	<rect x="153.9" y="333.5" class="st4" width="43.8" height="25"/>
	<text transform="matrix(1 0 0 1 159.7414 350.6196)" class="st2 st3">0.0%</text>
	<rect x="197.6" y="333.5" class="st4" width="43.8" height="25"/>
	<text transform="matrix(1 0 0 1 203.4914 350.6196)" class="st2 st3">0.0%</text>
	<path class="st1" d="M292.7,407.7h173c3.3,0,6,2.7,6,6v40c0,3.3-2.7,6-6,6h-173c-3.3,0-6-2.7-6-6v-40
		C286.7,410.4,289.4,407.7,292.7,407.7z"/>
	<text transform="matrix(1 0 0 1 359.3896 423.7267)" class="st2 st3">DNER</text>
	<rect x="291.7" y="429.7" class="st4" width="43.8" height="25"/>
	<text transform="matrix(1 0 0 1 297.5991 446.8934)" class="st2 st3">0.0%</text>
	<rect x="335.5" y="429.7" class="st6" width="43.8" height="25"/>
	<text transform="matrix(1 0 0 1 341.3491 446.8934)" class="st2 st3">1.2%</text>
	<rect x="379.2" y="429.7" class="st4" width="43.8" height="25"/>
	<text transform="matrix(1 0 0 1 385.0991 446.8934)" class="st2 st3">0.0%</text>
	<rect x="423" y="429.7" class="st4" width="43.8" height="25"/>
	<text transform="matrix(1 0 0 1 428.8491 446.8934)" class="st2 st3">0.0%</text>
	<rect x="708.1" y="259.3" class="st1" width="150" height="52"/>
	<text transform="matrix(1 0 0 1 724.1494 290.2523)" class="st2 st3">CLEAVED NOTCH</text>
	<path class="st1" d="M694.7,167.7h173c3.3,0,6,2.7,6,6v40c0,3.3-2.7,6-6,6h-173c-3.3,0-6-2.7-6-6v-40
		C688.7,170.4,691.4,167.7,694.7,167.7z"/>
	<text transform="matrix(1 0 0 1 757.0519 183.7486)" class="st2 st3">FBXW7</text>
	<rect x="693.7" y="189.7" class="st8" width="43.8" height="25"/>
	<text transform="matrix(1 0 0 1 699.5406 206.9153)" class="st2 st3">2.3%</text>
	<rect x="737.4" y="189.7" class="st8" width="43.8" height="25"/>
	<text transform="matrix(1 0 0 1 743.2906 206.9153)" class="st2 st3">2.3%</text>
	<rect x="781.2" y="189.7" class="st4" width="43.8" height="25"/>
	<text transform="matrix(1 0 0 1 787.0407 206.9153)" class="st2 st3">0.0%</text>
	<rect x="824.9" y="189.7" class="st4" width="43.8" height="25"/>
	<text transform="matrix(1 0 0 1 830.7907 206.9153)" class="st2 st3">0.0%</text>
	<rect x="796.9" y="397.1" class="st9" width="392.9" height="124"/>
	<path class="st1" d="M810.4,463.6h173c3.3,0,6,2.7,6,6v40c0,3.3-2.7,6-6,6h-173c-3.3,0-6-2.7-6-6v-40
		C804.4,466.3,807.1,463.6,810.4,463.6z"/>
	<text transform="matrix(1 0 0 1 872.436 479.6318)" class="st2 st3">NCOR2</text>
	<rect x="809.4" y="485.6" class="st4" width="43.8" height="25"/>
	<text transform="matrix(1 0 0 1 815.3145 502.7985)" class="st2 st3">0.0%</text>
	<rect x="853.2" y="485.6" class="st4" width="43.8" height="25"/>
	<text transform="matrix(1 0 0 1 859.0645 502.7985)" class="st2 st3">0.0%</text>
	<rect x="896.9" y="485.6" class="st7" width="43.8" height="25"/>
	<text transform="matrix(1 0 0 1 902.8145 502.7985)" class="st2 st3">1.7%</text>
	<rect x="940.7" y="485.6" class="st4" width="43.8" height="25"/>
	<text transform="matrix(1 0 0 1 946.5645 502.7985)" class="st2 st3">0.0%</text>
	<path class="st1" d="M1003.8,402.6h173c3.3,0,6,2.7,6,6v40c0,3.3-2.7,6-6,6h-173c-3.3,0-6-2.7-6-6v-40
		C997.8,405.3,1000.5,402.6,1003.8,402.6z"/>
	<text transform="matrix(1 0 0 1 1071.2679 418.6318)" class="st2 st3">SPEN</text>
	<rect x="1002.8" y="424.6" class="st4" width="43.8" height="25"/>
	<text transform="matrix(1 0 0 1 1008.705 441.7985)" class="st2 st3">0.0%</text>
	<rect x="1046.6" y="424.6" class="st10" width="43.8" height="25"/>
	<text transform="matrix(1 0 0 1 1052.455 441.7985)" class="st2 st3">3.5%</text>
	<rect x="1090.3" y="424.6" class="st7" width="43.8" height="25"/>
	<text transform="matrix(1 0 0 1 1096.205 441.7985)" class="st2 st3">1.7%</text>
	<rect x="1134.1" y="424.6" class="st4" width="43.8" height="25"/>
	<text transform="matrix(1 0 0 1 1139.955 441.7985)" class="st2 st3">0.0%</text>
	<path class="st1" d="M1005.3,461.2h173c3.3,0,6,2.7,6,6v40c0,3.3-2.7,6-6,6h-173c-3.3,0-6-2.7-6-6v-40
		C999.3,463.9,1002,461.2,1005.3,461.2z"/>
	<text transform="matrix(1 0 0 1 1067.7238 477.2231)" class="st2 st3">KDM5A</text>
	<rect x="1004.3" y="483.2" class="st5" width="43.8" height="25"/>
	<text transform="matrix(1 0 0 1 1010.2159 500.3897)" class="st2 st3">1.2%</text>
	<rect x="1048.1" y="483.2" class="st11" width="43.8" height="25"/>
	<text transform="matrix(1 0 0 1 1053.9659 500.3897)" class="st2 st3">2.3%</text>
	<rect x="1091.8" y="483.2" class="st12" width="43.8" height="25"/>
	<text transform="matrix(1 0 0 1 1097.7159 500.3897)" class="st2 st3">1.7%</text>
	<rect x="1135.6" y="483.2" class="st13" width="43.8" height="25"/>
	<text transform="matrix(1 0 0 1 1141.4659 500.3897)" class="st2 st3">1.8%</text>
	<path class="st1" d="M808.4,403.6h173c3.3,0,6,2.7,6,6v40c0,3.3-2.7,6-6,6h-173c-3.3,0-6-2.7-6-6v-40
		C802.4,406.3,805.1,403.6,808.4,403.6z"/>
	<text transform="matrix(1 0 0 1 870.436 419.6318)" class="st2 st3">NCOR1</text>
	<rect x="807.4" y="425.6" class="st6" width="43.8" height="25"/>
	<text transform="matrix(1 0 0 1 813.3145 442.7985)" class="st2 st3">1.2%</text>
	<rect x="851.2" y="425.6" class="st6" width="43.8" height="25"/>
	<text transform="matrix(1 0 0 1 857.0645 442.7985)" class="st2 st3">1.2%</text>
	<rect x="894.9" y="425.6" class="st4" width="43.8" height="25"/>
	<text transform="matrix(1 0 0 1 900.8145 442.7985)" class="st2 st3">0.0%</text>
	<rect x="938.7" y="425.6" class="st4" width="43.8" height="25"/>
	<text transform="matrix(1 0 0 1 944.5645 442.7985)" class="st2 st3">0.0%</text>
	<path class="st1" d="M67.4,252.9h173c3.3,0,6,2.7,6,6v40c0,3.3-2.7,6-6,6h-173c-3.3,0-6-2.7-6-6v-40
		C61.4,255.6,64.1,252.9,67.4,252.9z"/>
	<text transform="matrix(1 0 0 1 138.6975 268.9165)" class="st2 st3">NOV</text>
	<rect x="66.4" y="274.9" class="st14" width="43.8" height="25"/>
	<text transform="matrix(1 0 0 1 72.2414 292.0831)" class="st2 st3">7.0%</text>
	<rect x="110.1" y="274.9" class="st15" width="43.8" height="25"/>
	<text transform="matrix(1 0 0 1 111.9914 292.0831)" class="st2 st3">10.5%</text>
	<rect x="153.9" y="274.9" class="st16" width="43.8" height="25"/>
	<text transform="matrix(1 0 0 1 159.7414 292.0831)" class="st2 st3">8.6%</text>
	<rect x="197.6" y="274.9" class="st17" width="43.8" height="25"/>
	<text transform="matrix(1 0 0 1 203.4914 292.0831)" class="st2 st3">5.3%</text>
	<path class="st1" d="M300,166.5h173c3.3,0,6,2.7,6,6v40c0,3.3-2.7,6-6,6H300c-3.3,0-6-2.7-6-6v-40C294,169.2,296.7,166.5,300,166.5
		z"/>
	<text transform="matrix(1 0 0 1 368.9837 182.4749)" class="st2 st3">JAG2</text>
	<rect x="299" y="188.5" class="st4" width="43.8" height="25"/>
	<text transform="matrix(1 0 0 1 304.8655 205.6415)" class="st2 st3">0.0%</text>
	<rect x="342.7" y="188.5" class="st4" width="43.8" height="25"/>
	<text transform="matrix(1 0 0 1 348.6155 205.6415)" class="st2 st3">0.0%</text>
	<rect x="386.5" y="188.5" class="st7" width="43.8" height="25"/>
	<text transform="matrix(1 0 0 1 392.3655 205.6415)" class="st2 st3">1.7%</text>
	<rect x="430.2" y="188.5" class="st4" width="43.8" height="25"/>
	<text transform="matrix(1 0 0 1 436.1155 205.6415)" class="st2 st3">0.0%</text>
	<rect x="288.9" y="247.4" class="st1" width="385.8" height="134.3"/>
	<path class="st1" d="M300.4,322.9h173c3.3,0,6,2.7,6,6v40c0,3.3-2.7,6-6,6h-173c-3.3,0-6-2.7-6-6v-40
		C294.4,325.6,297.1,322.9,300.4,322.9z"/>
	<text transform="matrix(1 0 0 1 358.0871 338.9165)" class="st2 st3">NOTCH3</text>
	<rect x="299.4" y="344.9" class="st6" width="43.8" height="25"/>
	<text transform="matrix(1 0 0 1 305.2414 362.0831)" class="st2 st3">1.2%</text>
	<rect x="343.1" y="344.9" class="st6" width="43.8" height="25"/>
	<text transform="matrix(1 0 0 1 348.9914 362.0831)" class="st2 st3">1.2%</text>
	<rect x="386.9" y="344.9" class="st4" width="43.8" height="25"/>
	<text transform="matrix(1 0 0 1 392.7415 362.0831)" class="st2 st3">0.0%</text>
	<rect x="430.6" y="344.9" class="st18" width="43.8" height="25"/>
	<text transform="matrix(1 0 0 1 436.4915 362.0831)" class="st2 st3">1.8%</text>
	<path class="st1" d="M300.4,252.9h173c3.3,0,6,2.7,6,6v40c0,3.3-2.7,6-6,6h-173c-3.3,0-6-2.7-6-6v-40
		C294.4,255.6,297.1,252.9,300.4,252.9z"/>
	<text transform="matrix(1 0 0 1 358.0871 268.9165)" class="st2 st3">NOTCH1</text>
	<rect x="299.4" y="274.9" class="st4" width="43.8" height="25"/>
	<text transform="matrix(1 0 0 1 305.2414 292.0831)" class="st2 st3">0.0%</text>
	<rect x="343.1" y="274.9" class="st4" width="43.8" height="25"/>
	<text transform="matrix(1 0 0 1 348.9914 292.0831)" class="st2 st3">0.0%</text>
	<rect x="386.9" y="274.9" class="st7" width="43.8" height="25"/>
	<text transform="matrix(1 0 0 1 392.7415 292.0831)" class="st2 st3">1.7%</text>
	<rect x="430.6" y="274.9" class="st4" width="43.8" height="25"/>
	<text transform="matrix(1 0 0 1 436.4915 292.0831)" class="st2 st3">0.0%</text>
	<path class="st1" d="M488.9,252.9h173c3.3,0,6,2.7,6,6v40c0,3.3-2.7,6-6,6h-173c-3.3,0-6-2.7-6-6v-40
		C482.9,255.6,485.6,252.9,488.9,252.9z"/>
	<text transform="matrix(1 0 0 1 546.6455 268.9165)" class="st2 st3">NOTCH2</text>
	<rect x="487.9" y="274.9" class="st10" width="43.7" height="25"/>
	<text transform="matrix(1 0 0 1 493.7998 292.0831)" class="st2 st3">3.5%</text>
	<rect x="531.7" y="274.9" class="st19" width="43.8" height="25"/>
	<text transform="matrix(1 0 0 1 537.5498 292.0831)" class="st2 st3">5.8%</text>
	<rect x="575.4" y="274.9" class="st7" width="43.8" height="25"/>
	<text transform="matrix(1 0 0 1 581.2998 292.0831)" class="st2 st3">1.7%</text>
	<rect x="619.2" y="274.9" class="st4" width="43.8" height="25"/>
	<text transform="matrix(1 0 0 1 625.0498 292.0831)" class="st2 st3">0.0%</text>
	<path class="st1" d="M490.2,324.2h173c3.3,0,6,2.7,6,6v40c0,3.3-2.7,6-6,6h-173c-3.3,0-6-2.7-6-6v-40
		C484.2,326.9,486.9,324.2,490.2,324.2z"/>
	<text transform="matrix(1 0 0 1 547.9192 340.1902)" class="st2 st3">NOTCH4</text>
	<rect x="489.2" y="346.2" class="st4" width="43.8" height="25"/>
	<text transform="matrix(1 0 0 1 495.0735 363.3569)" class="st2 st3">0.0%</text>
	<rect x="532.9" y="346.2" class="st10" width="43.8" height="25"/>
	<text transform="matrix(1 0 0 1 538.8235 363.3569)" class="st2 st3">3.5%</text>
	<rect x="576.7" y="346.2" class="st7" width="43.8" height="25"/>
	<text transform="matrix(1 0 0 1 582.5735 363.3569)" class="st2 st3">1.7%</text>
	<rect x="620.4" y="346.2" class="st18" width="43.8" height="25"/>
	<text transform="matrix(1 0 0 1 626.3235 363.3569)" class="st2 st3">1.8%</text>
	<path class="st1" d="M506.8,406.5h173c3.3,0,6,2.7,6,6v40c0,3.3-2.7,6-6,6h-173c-3.3,0-6-2.7-6-6v-40
		C500.8,409.1,503.4,406.5,506.8,406.5z"/>
	<text transform="matrix(1 0 0 1 570.3019 422.453)" class="st2 st3">PSEN2</text>
	<rect x="505.8" y="428.5" class="st4" width="43.8" height="25"/>
	<text transform="matrix(1 0 0 1 511.632 445.6197)" class="st2 st3">0.0%</text>
	<rect x="549.5" y="428.5" class="st10" width="43.8" height="25"/>
	<text transform="matrix(1 0 0 1 555.382 445.6197)" class="st2 st3">3.5%</text>
	<rect x="593.3" y="428.5" class="st4" width="43.8" height="25"/>
	<text transform="matrix(1 0 0 1 599.132 445.6197)" class="st2 st3">0.0%</text>
	<rect x="637" y="428.5" class="st18" width="43.8" height="25"/>
	<text transform="matrix(1 0 0 1 642.882 445.6197)" class="st2 st3">1.8%</text>
	<path class="st1" d="M489.4,167.7h173c3.3,0,6,2.7,6,6v40c0,3.3-2.7,6-6,6h-173c-3.3,0-6-2.7-6-6v-40
		C483.4,170.4,486.1,167.7,489.4,167.7z"/>
	<text transform="matrix(1 0 0 1 547.0874 183.7486)" class="st2 st3">ARRDC1</text>
	<rect x="488.4" y="189.7" class="st4" width="43.8" height="25"/>
	<text transform="matrix(1 0 0 1 494.2451 206.9153)" class="st2 st3">0.0%</text>
	<rect x="532.1" y="189.7" class="st5" width="43.8" height="25"/>
	<text transform="matrix(1 0 0 1 537.9951 206.9153)" class="st2 st3">1.2%</text>
	<rect x="575.9" y="189.7" class="st4" width="43.8" height="25"/>
	<text transform="matrix(1 0 0 1 581.7451 206.9153)" class="st2 st3">0.0%</text>
	<rect x="619.6" y="189.7" class="st4" width="43.8" height="25"/>
	<text transform="matrix(1 0 0 1 625.4951 206.9153)" class="st2 st3">0.0%</text>
	<rect x="1216.1" y="486.7" class="st20" width="156" height="24"/>
	<text transform="matrix(1 0 0 1 1225.2423 503.6866)" class="st2 st3">Cell growth, apoptosis</text>
	<polygon points="421.8,390.4 415.8,385.1 424,381.7 	"/>
	<line class="st21" x1="401.6" y1="407.7" x2="418.8" y2="387.8"/>
	<polygon points="700,286.7 700.3,278.7 708.1,283 	"/>
	<line class="st21" x1="667.9" y1="281.7" x2="700.1" y2="282.7"/>
	<polygon points="887.5,290.5 887.6,282.5 895.5,286.6 	"/>
	<line class="st21" x1="858.1" y1="286.2" x2="887.5" y2="286.5"/>
	<line class="st22" x1="532.1" y1="243.4" x2="538.5" y2="248.3"/>
	<line class="st21" x1="555.6" y1="219.7" x2="535.3" y2="245.8"/>
	<line class="st22" x1="997.7" y1="350.6" x2="989.7" y2="350.6"/>
	<line class="st21" x1="993.6" y1="397.1" x2="993.7" y2="350.6"/>
	<polygon points="421.3,243.6 427.6,238.6 429.4,247.4 	"/>
	<line class="st21" x1="406.8" y1="218.5" x2="424.5" y2="241.1"/>
	<polygon points="553.7,384.8 547.9,390.3 545.3,381.7 	"/>
	<line class="st21" x1="568.7" y1="406.5" x2="550.8" y2="387.5"/>
	<line class="st22" x1="287.1" y1="332.2" x2="286.6" y2="324.2"/>
	<line class="st21" x1="246.4" y1="331" x2="286.9" y2="328.2"/>
	<line class="st22" x1="778.5" y1="257.3" x2="786.5" y2="257.2"/>
	<line class="st21" x1="781.7" y1="219.7" x2="782.5" y2="257.3"/>
	<line class="st22" x1="1289.8" y1="484.8" x2="1297.8" y2="484.6"/>
	<line class="st21" x1="1290.3" y1="320.4" x2="1293.8" y2="484.7"/>
	<polygon points="881.6,188.8 881.7,196.8 873.7,192.9 	"/>
	<line class="st21" x1="952.8" y1="192.1" x2="881.7" y2="192.8"/>
	<polygon points="1189.1,296.2 1189.3,288.2 1197.2,292.3 	"/>
	<line class="st21" x1="1092.1" y1="290" x2="1189.2" y2="292.2"/>
	<line class="st22" x1="286.4" y1="297.3" x2="287.3" y2="289.4"/>
	<line class="st21" x1="246.4" y1="289" x2="286.9" y2="293.4"/>
	<text transform="matrix(1 0 0 1 61.3667 158.8899)" class="st23 st24">Notch pathway</text>
</g>
</svg>
