<?xml version="1.0" encoding="utf-8"?>
<!-- Generator: Adobe Illustrator 22.0.0, SVG Export Plug-In . SVG Version: 6.00 Build 0)  -->
<svg version="1.1" id="图层_1" xmlns="http://www.w3.org/2000/svg" xmlns:xlink="http://www.w3.org/1999/xlink" x="0px" y="0px"
	 viewBox="0 0 692.3 399.3" style="enable-background:new 0 0 692.3 399.3;" xml:space="preserve">
<style type="text/css">
	.st0{fill:#FFFFFF;stroke:#000000;stroke-miterlimit:10;}
	.st1{fill:#FFFFFF;fill-opacity:0.5;stroke:#000000;}
	.st2{font-family:'ArialMT';}
	.st3{font-size:14px;}
	.st4{fill:#FFFFFF;stroke:#000000;}
	.st5{fill:#E2E2FF;stroke:#000000;}
	.st6{fill:#D3D3FF;stroke:#000000;}
	.st7{fill:#FFFFFF;fill-opacity:0;stroke:#000000;stroke-opacity:0;}
	.st8{fill:#FFE2E2;stroke:#000000;}
	.st9{fill:#FFD3D3;stroke:#000000;}
	.st10{fill:none;stroke:#000000;}
	.st11{fill:none;stroke:#000000;stroke-width:2;}
	.st12{font-family:'Arial-Black';}
	.st13{font-size:18px;}
</style>
<rect x="232.2" y="64.9" class="st0" width="234.5" height="252"/>
<path class="st1" d="M261.1,117.6h173c3.3,0,6,2.7,6,6v40c0,3.3-2.7,6-6,6h-173c-3.3,0-6-2.7-6-6v-40
	C255.1,120.3,257.8,117.6,261.1,117.6z"/>
<text transform="matrix(1 0 0 1 325.0231 133.6087)" class="st2 st3">KEAP1</text>
<rect x="260.1" y="139.6" class="st4" width="43.8" height="25"/>
<text transform="matrix(1 0 0 1 265.9669 156.7754)" class="st2 st3">0.0%</text>
<rect x="303.8" y="139.6" class="st5" width="43.8" height="25"/>
<text transform="matrix(1 0 0 1 309.7169 156.7754)" class="st2 st3">1.2%</text>
<rect x="347.6" y="139.6" class="st4" width="43.8" height="25"/>
<text transform="matrix(1 0 0 1 353.4669 156.7754)" class="st2 st3">0.0%</text>
<rect x="391.3" y="139.6" class="st6" width="43.8" height="25"/>
<text transform="matrix(1 0 0 1 397.2169 156.7754)" class="st2 st3">1.8%</text>
<rect x="263.3" y="276.2" class="st7" width="174" height="24"/>
<text transform="matrix(1 0 0 1 265.9213 293.1914)" class="st2 st3">Oxidative Stress Response</text>
<path class="st1" d="M262.3,197.7h173c3.3,0,6,2.7,6,6v40c0,3.3-2.7,6-6,6h-173c-3.3,0-6-2.7-6-6v-40
	C256.3,200.4,259,197.7,262.3,197.7z"/>
<text transform="matrix(1 0 0 1 323.1587 213.713)" class="st2 st3">NFE2L2</text>
<rect x="261.3" y="219.7" class="st8" width="43.8" height="25"/>
<text transform="matrix(1 0 0 1 267.2129 236.8797)" class="st2 st3">1.2%</text>
<rect x="305.1" y="219.7" class="st4" width="43.8" height="25"/>
<text transform="matrix(1 0 0 1 310.9629 236.8797)" class="st2 st3">0.0%</text>
<rect x="348.8" y="219.7" class="st4" width="43.8" height="25"/>
<text transform="matrix(1 0 0 1 354.7129 236.8797)" class="st2 st3">0.0%</text>
<rect x="392.6" y="219.7" class="st9" width="43.8" height="25"/>
<text transform="matrix(1 0 0 1 398.4629 236.8797)" class="st2 st3">1.8%</text>
<polygon points="345.9,268.3 353.9,268.1 350.1,276.2 "/>
<line class="st10" x1="349.4" y1="249.7" x2="349.9" y2="268.2"/>
<line class="st11" x1="344.4" y1="195.8" x2="352.4" y2="195.7"/>
<line class="st10" x1="348" y1="169.6" x2="348.4" y2="195.7"/>
<text transform="matrix(1 0 0 1 255.0919 97.8898)" class="st12 st13">Nrf2 pathway</text>
</svg>
