<?xml version="1.0" encoding="utf-8"?>
<!-- Generator: Adobe Illustrator 22.0.0, SVG Export Plug-In . SVG Version: 6.00 Build 0)  -->
<svg version="1.1" id="图层_1" xmlns="http://www.w3.org/2000/svg" xmlns:xlink="http://www.w3.org/1999/xlink" x="0px" y="0px"
	 viewBox="0 0 1767.3 1019.3" style="enable-background:new 0 0 1767.3 1019.3;" xml:space="preserve">
<style type="text/css">
	.st0{fill:#FFFFFF;stroke:#000000;stroke-miterlimit:10;}
	.st1{fill:#FFFFFF;fill-opacity:0.5;stroke:#000000;}
	.st2{font-family:'ArialMT';}
	.st3{font-size:14px;}
	.st4{fill:#FFA0A0;stroke:#000000;}
	.st5{fill:#FFB8B8;stroke:#000000;}
	.st6{fill:#FF9898;stroke:#000000;}
	.st7{fill:#FFA5A5;stroke:#000000;}
	.st8{fill:#FFFFFF;stroke:#000000;}
	.st9{fill:#FFE2E2;stroke:#000000;}
	.st10{fill:#FFD3D3;stroke:#000000;}
	.st11{fill:#FFFFFF;fill-opacity:0.5;stroke:#CCCCCC;}
	.st12{fill:#B8B8FF;stroke:#000000;}
	.st13{fill:#FFB7B7;stroke:#000000;}
	.st14{fill:#FFC9C9;stroke:#000000;}
	.st15{fill:#FFD4D4;stroke:#000000;}
	.st16{fill:#FF9797;stroke:#000000;}
	.st17{fill:#D3D3FF;stroke:#000000;}
	.st18{fill:#E2E2FF;stroke:#000000;}
	.st19{fill:#C9C9FF;stroke:#000000;}
	.st20{fill:#FFFFFF;fill-opacity:0;stroke:#000000;stroke-opacity:0;}
	.st21{fill:none;stroke:#000000;stroke-width:2;}
	.st22{fill:none;stroke:#000000;}
	.st23{font-family:'ArialNarrow-Bold';}
	.st24{font-size:18px;}
</style>
<g>
	<rect x="410.7" y="79.2" class="st0" width="694" height="639.3"/>
	<path class="st1" d="M667.8,142.4h173c3.3,0,6,2.7,6,6v40c0,3.3-2.7,6-6,6h-173c-3.3,0-6-2.7-6-6v-40
		C661.8,145,664.4,142.4,667.8,142.4z"/>
	<text transform="matrix(1 0 0 1 729.3604 158.3514)" class="st2 st3">PIK3CA</text>
	<rect x="666.8" y="164.4" class="st4" width="43.8" height="25"/>
	<text transform="matrix(1 0 0 1 672.6353 181.5181)" class="st2 st3">5.8%</text>
	<rect x="710.5" y="164.4" class="st5" width="43.8" height="25"/>
	<text transform="matrix(1 0 0 1 716.3853 181.5181)" class="st2 st3">3.5%</text>
	<rect x="754.3" y="164.4" class="st6" width="43.8" height="25"/>
	<text transform="matrix(1 0 0 1 760.1353 181.5181)" class="st2 st3">6.9%</text>
	<rect x="798" y="164.4" class="st7" width="43.8" height="25"/>
	<text transform="matrix(1 0 0 1 803.8853 181.5181)" class="st2 st3">5.3%</text>
	<path class="st1" d="M666.8,481.6h173c3.3,0,6,2.7,6,6v40c0,3.3-2.7,6-6,6h-173c-3.3,0-6-2.7-6-6v-40
		C660.8,484.3,663.5,481.6,666.8,481.6z"/>
	<text transform="matrix(1 0 0 1 733.8922 497.612)" class="st2 st3">RHEB</text>
	<rect x="665.8" y="503.6" class="st8" width="43.8" height="25"/>
	<text transform="matrix(1 0 0 1 671.7154 520.7786)" class="st2 st3">0.0%</text>
	<rect x="709.6" y="503.6" class="st9" width="43.8" height="25"/>
	<text transform="matrix(1 0 0 1 715.4654 520.7786)" class="st2 st3">1.2%</text>
	<rect x="753.3" y="503.6" class="st8" width="43.8" height="25"/>
	<text transform="matrix(1 0 0 1 759.2154 520.7786)" class="st2 st3">0.0%</text>
	<rect x="797.1" y="503.6" class="st10" width="43.8" height="25"/>
	<text transform="matrix(1 0 0 1 802.9654 520.7786)" class="st2 st3">1.8%</text>
	<rect x="889" y="110.1" class="st11" width="196" height="123"/>
	<text transform="matrix(1 0 0 1 1038.4199 249.0677)" class="st2 st3">PIK3R</text>
	<path class="st1" d="M900.5,115.6h173c3.3,0,6,2.7,6,6v40c0,3.3-2.7,6-6,6h-173c-3.3,0-6-2.7-6-6v-40
		C894.5,118.3,897.2,115.6,900.5,115.6z"/>
	<text transform="matrix(1 0 0 1 962.8401 131.5679)" class="st2 st3">PIK3R2</text>
	<rect x="899.5" y="137.6" class="st9" width="43.8" height="25"/>
	<text transform="matrix(1 0 0 1 905.3392 154.7346)" class="st2 st3">1.2%</text>
	<rect x="943.2" y="137.6" class="st9" width="43.8" height="25"/>
	<text transform="matrix(1 0 0 1 949.0892 154.7346)" class="st2 st3">1.2%</text>
	<rect x="987" y="137.6" class="st8" width="43.8" height="25"/>
	<text transform="matrix(1 0 0 1 992.8392 154.7346)" class="st2 st3">0.0%</text>
	<rect x="1030.7" y="137.6" class="st8" width="43.8" height="25"/>
	<text transform="matrix(1 0 0 1 1036.5891 154.7346)" class="st2 st3">0.0%</text>
	<path class="st1" d="M900.5,175.6h173c3.3,0,6,2.7,6,6v40c0,3.3-2.7,6-6,6h-173c-3.3,0-6-2.7-6-6v-40
		C894.5,178.3,897.2,175.6,900.5,175.6z"/>
	<text transform="matrix(1 0 0 1 962.8401 191.5679)" class="st2 st3">PIK3R3</text>
	<rect x="899.5" y="197.6" class="st8" width="43.8" height="25"/>
	<text transform="matrix(1 0 0 1 905.3392 214.7346)" class="st2 st3">0.0%</text>
	<rect x="943.2" y="197.6" class="st8" width="43.8" height="25"/>
	<text transform="matrix(1 0 0 1 949.0892 214.7346)" class="st2 st3">0.0%</text>
	<rect x="987" y="197.6" class="st12" width="43.8" height="25"/>
	<text transform="matrix(1 0 0 1 992.8392 214.7346)" class="st2 st3">3.4%</text>
	<rect x="1030.7" y="197.6" class="st8" width="43.8" height="25"/>
	<text transform="matrix(1 0 0 1 1036.5891 214.7346)" class="st2 st3">0.0%</text>
	<rect x="656" y="223.2" class="st11" width="197.7" height="123.6"/>
	<text transform="matrix(1 0 0 1 820.8183 362.438)" class="st2 st3">AKT</text>
	<path class="st1" d="M668.7,289.3h173c3.3,0,6,2.7,6,6v40c0,3.3-2.7,6-6,6h-173c-3.3,0-6-2.7-6-6v-40
		C662.7,292,665.4,289.3,668.7,289.3z"/>
	<text transform="matrix(1 0 0 1 737.6864 305.3162)" class="st2 st3">AKT3</text>
	<rect x="667.7" y="311.3" class="st8" width="43.8" height="25"/>
	<text transform="matrix(1 0 0 1 673.5682 328.4828)" class="st2 st3">0.0%</text>
	<rect x="711.4" y="311.3" class="st5" width="43.8" height="25"/>
	<text transform="matrix(1 0 0 1 717.3182 328.4828)" class="st2 st3">3.5%</text>
	<rect x="755.2" y="311.3" class="st8" width="43.8" height="25"/>
	<text transform="matrix(1 0 0 1 761.0682 328.4828)" class="st2 st3">0.0%</text>
	<rect x="798.9" y="311.3" class="st13" width="43.8" height="25"/>
	<text transform="matrix(1 0 0 1 804.8182 328.4828)" class="st2 st3">3.5%</text>
	<path class="st1" d="M669.2,228.7h173c3.3,0,6,2.7,6,6v40c0,3.3-2.7,6-6,6h-173c-3.3,0-6-2.7-6-6v-40
		C663.2,231.4,665.9,228.7,669.2,228.7z"/>
	<text transform="matrix(1 0 0 1 738.207 244.7396)" class="st2 st3">AKT2</text>
	<rect x="668.2" y="250.7" class="st9" width="43.8" height="25"/>
	<text transform="matrix(1 0 0 1 674.0889 267.9063)" class="st2 st3">1.2%</text>
	<rect x="712" y="250.7" class="st14" width="43.8" height="25"/>
	<text transform="matrix(1 0 0 1 717.8389 267.9063)" class="st2 st3">2.3%</text>
	<rect x="755.7" y="250.7" class="st15" width="43.8" height="25"/>
	<text transform="matrix(1 0 0 1 761.5889 267.9063)" class="st2 st3">1.7%</text>
	<rect x="799.5" y="250.7" class="st8" width="43.8" height="25"/>
	<text transform="matrix(1 0 0 1 805.3389 267.9063)" class="st2 st3">0.0%</text>
	<rect x="437.3" y="475.5" class="st11" width="196" height="63"/>
	<text transform="matrix(1 0 0 1 575.0105 554.5231)" class="st2 st3">mTORC2</text>
	<path class="st1" d="M448.8,481h173c3.3,0,6,2.7,6,6v40c0,3.3-2.7,6-6,6h-173c-3.3,0-6-2.7-6-6v-40
		C442.8,483.7,445.5,481,448.8,481z"/>
	<text transform="matrix(1 0 0 1 508.6125 497.0228)" class="st2 st3">RICTOR</text>
	<rect x="447.8" y="503" class="st4" width="43.8" height="25"/>
	<text transform="matrix(1 0 0 1 453.6921 520.1895)" class="st2 st3">5.8%</text>
	<rect x="491.6" y="503" class="st16" width="43.8" height="25"/>
	<text transform="matrix(1 0 0 1 497.4421 520.1895)" class="st2 st3">7.0%</text>
	<rect x="535.3" y="503" class="st6" width="43.8" height="25"/>
	<text transform="matrix(1 0 0 1 541.1921 520.1895)" class="st2 st3">6.9%</text>
	<rect x="579.1" y="503" class="st13" width="43.8" height="25"/>
	<text transform="matrix(1 0 0 1 584.9421 520.1895)" class="st2 st3">3.5%</text>
	<rect x="657.3" y="380.1" class="st11" width="196" height="63"/>
	<text transform="matrix(1 0 0 1 819.8854 459.06)" class="st2 st3">TSC</text>
	<path class="st1" d="M668.8,385.6h173c3.3,0,6,2.7,6,6v40c0,3.3-2.7,6-6,6h-173c-3.3,0-6-2.7-6-6v-40
		C662.8,388.2,665.4,385.6,668.8,385.6z"/>
	<text transform="matrix(1 0 0 1 737.3672 401.5599)" class="st2 st3">TSC1</text>
	<rect x="667.8" y="407.6" class="st8" width="43.8" height="25"/>
	<text transform="matrix(1 0 0 1 673.6353 424.7265)" class="st2 st3">0.0%</text>
	<rect x="711.5" y="407.6" class="st8" width="43.8" height="25"/>
	<text transform="matrix(1 0 0 1 717.3853 424.7265)" class="st2 st3">0.0%</text>
	<rect x="755.3" y="407.6" class="st8" width="43.8" height="25"/>
	<text transform="matrix(1 0 0 1 761.1353 424.7265)" class="st2 st3">0.0%</text>
	<rect x="799" y="407.6" class="st17" width="43.8" height="25"/>
	<text transform="matrix(1 0 0 1 804.8853 424.7265)" class="st2 st3">1.8%</text>
	<rect x="559.9" y="573.3" class="st11" width="391.6" height="64.2"/>
	<text transform="matrix(1 0 0 1 888.9641 653.4799)" class="st2 st3">mTORC1</text>
	<path class="st1" d="M767,580h173c3.3,0,6,2.7,6,6v40c0,3.3-2.7,6-6,6H767c-3.3,0-6-2.7-6-6v-40C761,582.7,763.7,580,767,580z"/>
	<text transform="matrix(1 0 0 1 829.1481 595.9802)" class="st2 st3">RPTOR</text>
	<rect x="766" y="602" class="st14" width="43.8" height="25"/>
	<text transform="matrix(1 0 0 1 771.8966 619.1469)" class="st2 st3">2.3%</text>
	<rect x="809.8" y="602" class="st14" width="43.8" height="25"/>
	<text transform="matrix(1 0 0 1 815.6466 619.1469)" class="st2 st3">2.3%</text>
	<rect x="853.5" y="602" class="st8" width="43.8" height="25"/>
	<text transform="matrix(1 0 0 1 859.3966 619.1469)" class="st2 st3">0.0%</text>
	<rect x="897.3" y="602" class="st10" width="43.8" height="25"/>
	<text transform="matrix(1 0 0 1 903.1466 619.1469)" class="st2 st3">1.8%</text>
	<path class="st1" d="M571.4,578.8h173c3.3,0,6,2.7,6,6v40c0,3.3-2.7,6-6,6h-173c-3.3,0-6-2.7-6-6v-40
		C565.4,581.5,568.1,578.8,571.4,578.8z"/>
	<text transform="matrix(1 0 0 1 637.4128 594.7792)" class="st2 st3">MTOR</text>
	<rect x="570.4" y="600.8" class="st8" width="43.8" height="25"/>
	<text transform="matrix(1 0 0 1 576.2683 617.9459)" class="st2 st3">0.0%</text>
	<rect x="614.1" y="600.8" class="st5" width="43.8" height="25"/>
	<text transform="matrix(1 0 0 1 620.0183 617.9459)" class="st2 st3">3.5%</text>
	<rect x="657.9" y="600.8" class="st15" width="43.8" height="25"/>
	<text transform="matrix(1 0 0 1 663.7683 617.9459)" class="st2 st3">1.7%</text>
	<rect x="701.6" y="600.8" class="st8" width="43.8" height="25"/>
	<text transform="matrix(1 0 0 1 707.5183 617.9459)" class="st2 st3">0.0%</text>
	<path class="st1" d="M902.3,258.1h173c3.3,0,6,2.7,6,6v40c0,3.3-2.7,6-6,6h-173c-3.3,0-6-2.7-6-6v-40
		C896.3,260.8,899,258.1,902.3,258.1z"/>
	<text transform="matrix(1 0 0 1 957.2778 274.1437)" class="st2 st3">PPP2R1A</text>
	<rect x="901.3" y="280.1" class="st18" width="43.8" height="25"/>
	<text transform="matrix(1 0 0 1 907.1699 297.3104)" class="st2 st3">1.2%</text>
	<rect x="945" y="280.1" class="st19" width="43.8" height="25"/>
	<text transform="matrix(1 0 0 1 950.9199 297.3104)" class="st2 st3">2.3%</text>
	<rect x="988.8" y="280.1" class="st8" width="43.8" height="25"/>
	<text transform="matrix(1 0 0 1 994.6699 297.3104)" class="st2 st3">0.0%</text>
	<rect x="1032.5" y="280.1" class="st17" width="43.8" height="25"/>
	<text transform="matrix(1 0 0 1 1038.4199 297.3104)" class="st2 st3">1.8%</text>
	<rect x="710" y="686.3" class="st20" width="90" height="24"/>
	<text transform="matrix(1 0 0 1 719.9791 703.2762)" class="st2 st3">Cell growth</text>
	<path class="st1" d="M444.8,144.4h173c3.3,0,6,2.7,6,6v40c0,3.3-2.7,6-6,6h-173c-3.3,0-6-2.7-6-6v-40
		C438.8,147,441.4,144.4,444.8,144.4z"/>
	<text transform="matrix(1 0 0 1 506.3604 160.3514)" class="st2 st3">INPP4B</text>
	<rect x="443.8" y="166.4" class="st12" width="43.8" height="25"/>
	<text transform="matrix(1 0 0 1 449.6353 183.5181)" class="st2 st3">3.5%</text>
	<rect x="487.5" y="166.4" class="st18" width="43.8" height="25"/>
	<text transform="matrix(1 0 0 1 493.3853 183.5181)" class="st2 st3">1.2%</text>
	<rect x="531.3" y="166.4" class="st8" width="43.8" height="25"/>
	<text transform="matrix(1 0 0 1 537.1353 183.5181)" class="st2 st3">0.0%</text>
	<rect x="575" y="166.4" class="st17" width="43.8" height="25"/>
	<text transform="matrix(1 0 0 1 580.8853 183.5181)" class="st2 st3">1.8%</text>
	<path class="st1" d="M449.1,388.2h173c3.3,0,6,2.7,6,6v40c0,3.3-2.7,6-6,6h-173c-3.3,0-6-2.7-6-6v-40
		C443.1,390.9,445.8,388.2,449.1,388.2z"/>
	<text transform="matrix(1 0 0 1 514.7085 404.2157)" class="st2 st3">STK11</text>
	<rect x="448.1" y="410.2" class="st8" width="43.8" height="25"/>
	<text transform="matrix(1 0 0 1 453.9639 427.3824)" class="st2 st3">0.0%</text>
	<rect x="491.8" y="410.2" class="st18" width="43.8" height="25"/>
	<text transform="matrix(1 0 0 1 497.7139 427.3824)" class="st2 st3">1.2%</text>
	<rect x="535.6" y="410.2" class="st8" width="43.8" height="25"/>
	<text transform="matrix(1 0 0 1 541.4639 427.3824)" class="st2 st3">0.0%</text>
	<rect x="579.3" y="410.2" class="st8" width="43.8" height="25"/>
	<text transform="matrix(1 0 0 1 585.2139 427.3824)" class="st2 st3">0.0%</text>
	<line class="st21" x1="659.8" y1="173.2" x2="659.7" y2="165.2"/>
	<line class="st22" x1="623.8" y1="169.5" x2="659.8" y2="169.2"/>
	<polygon points="750.7,565.4 758.7,565.2 754.9,573.3 	"/>
	<line class="st22" x1="754" y1="533.6" x2="754.7" y2="565.3"/>
	<line class="st21" x1="848.8" y1="165.7" x2="848.7" y2="173.7"/>
	<line class="st22" x1="889" y1="170.2" x2="848.8" y2="169.7"/>
	<line class="st21" x1="855.7" y1="280.6" x2="855.7" y2="288.6"/>
	<line class="st22" x1="896.3" y1="284.5" x2="855.7" y2="284.6"/>
	<line class="st21" x1="751.2" y1="378.1" x2="759.2" y2="378"/>
	<line class="st22" x1="755.1" y1="346.8" x2="755.2" y2="378.1"/>
	<line class="st21" x1="749.9" y1="479.5" x2="757.9" y2="479.7"/>
	<line class="st22" x1="754.6" y1="443.1" x2="753.9" y2="479.6"/>
	<polygon points="751.1,678.2 759.1,678.3 755.1,686.3 	"/>
	<line class="st22" x1="755.5" y1="637.5" x2="755.1" y2="678.3"/>
	<polygon points="649.3,416.8 649.2,408.8 657.3,412.7 	"/>
	<line class="st22" x1="628.1" y1="413.1" x2="649.3" y2="412.8"/>
	<polygon points="539.5,448.2 531.5,448.2 535.5,440.2 	"/>
	<line class="st22" x1="535.4" y1="481" x2="535.5" y2="448.2"/>
	<polygon points="750.5,215.3 758.5,215.2 754.5,223.2 	"/>
	<line class="st22" x1="754.4" y1="194.4" x2="754.5" y2="215.2"/>
	<text transform="matrix(1 0 0 1 437.3171 115.568)" class="st23 st24">PI3K pathway</text>
</g>
</svg>
