<?xml version="1.0" encoding="utf-8"?>
<!-- Generator: Adobe Illustrator 22.0.0, SVG Export Plug-In . SVG Version: 6.00 Build 0)  -->
<svg version="1.1" id="图层_1" xmlns="http://www.w3.org/2000/svg" xmlns:xlink="http://www.w3.org/1999/xlink" x="0px" y="0px"
	 viewBox="0 0 1692.4 1044.1" style="enable-background:new 0 0 1692.4 1044.1;" xml:space="preserve">
<style type="text/css">
	.st0{fill:#FFFFFF;stroke:#000000;stroke-miterlimit:10;}
	.st1{fill:#FFFFFF;fill-opacity:0.5;stroke:#CCCCCC;}
	.st2{font-family:'ArialMT';}
	.st3{font-size:14px;}
	.st4{fill:#FFFFFF;fill-opacity:0.5;stroke:#000000;}
	.st5{fill:#FFFFFF;stroke:#000000;}
	.st6{fill:#D3D3FF;stroke:#000000;}
	.st7{fill:#C9C9FF;stroke:#000000;}
	.st8{fill:#B8B8FF;stroke:#000000;}
	.st9{fill:#E2E2FF;stroke:#000000;}
	.st10{fill:#D4D4FF;stroke:#000000;}
	.st11{fill:#A5A5FF;stroke:#000000;}
	.st12{fill:#FFA0A0;stroke:#000000;}
	.st13{fill:#FFABAB;stroke:#000000;}
	.st14{fill:#FFB8B8;stroke:#000000;}
	.st15{fill:#FFA5A5;stroke:#000000;}
	.st16{fill:#FFD4D4;stroke:#000000;}
	.st17{fill:#FFFFFF;fill-opacity:0;stroke:#000000;stroke-opacity:0;}
	.st18{fill:#FFE2E2;stroke:#000000;}
	.st19{fill:none;stroke:#000000;}
	.st20{fill:none;stroke:#000000;stroke-width:2;}
	.st21{font-family:'Arial-BoldMT';}
	.st22{font-size:18px;}
</style>
<g>
	<rect x="457" y="57.9" class="st0" width="693" height="717"/>
	<rect x="937.5" y="111.8" class="st1" width="198.7" height="240.4"/>
	<text transform="matrix(1 0 0 1 1105.6635 368.2229)" class="st2 st3">DKK</text>
	<path class="st4" d="M949,117.3h173c3.3,0,6,2.7,6,6v40c0,3.3-2.7,6-6,6H949c-3.3,0-6-2.7-6-6v-40C943,120,945.7,117.3,949,117.3z"
		/>
	<text transform="matrix(1 0 0 1 1017.2189 133.34)" class="st2 st3">DKK1</text>
	<rect x="948" y="139.3" class="st5" width="43.8" height="25"/>
	<text transform="matrix(1 0 0 1 953.88 156.5067)" class="st2 st3">0.0%</text>
	<rect x="991.8" y="139.3" class="st5" width="43.8" height="25"/>
	<text transform="matrix(1 0 0 1 997.63 156.5067)" class="st2 st3">0.0%</text>
	<rect x="1035.5" y="139.3" class="st5" width="43.8" height="25"/>
	<text transform="matrix(1 0 0 1 1041.38 156.5067)" class="st2 st3">0.0%</text>
	<rect x="1079.3" y="139.3" class="st6" width="43.8" height="25"/>
	<text transform="matrix(1 0 0 1 1085.13 156.5067)" class="st2 st3">1.8%</text>
	<path class="st4" d="M949.6,178.2h173c3.3,0,6,2.7,6,6v40c0,3.3-2.7,6-6,6h-173c-3.3,0-6-2.7-6-6v-40
		C943.6,180.9,946.3,178.2,949.6,178.2z"/>
	<text transform="matrix(1 0 0 1 1017.7804 194.1783)" class="st2 st3">DKK2</text>
	<rect x="948.6" y="200.2" class="st5" width="43.8" height="25"/>
	<text transform="matrix(1 0 0 1 954.4415 217.345)" class="st2 st3">0.0%</text>
	<rect x="992.3" y="200.2" class="st5" width="43.8" height="25"/>
	<text transform="matrix(1 0 0 1 998.1915 217.345)" class="st2 st3">0.0%</text>
	<rect x="1036.1" y="200.2" class="st5" width="43.8" height="25"/>
	<text transform="matrix(1 0 0 1 1041.9415 217.345)" class="st2 st3">0.0%</text>
	<rect x="1079.8" y="200.2" class="st5" width="43.8" height="25"/>
	<text transform="matrix(1 0 0 1 1085.6915 217.345)" class="st2 st3">0.0%</text>
	<path class="st4" d="M951.7,294.7h173c3.3,0,6,2.7,6,6v40c0,3.3-2.7,6-6,6h-173c-3.3,0-6-2.7-6-6v-40
		C945.7,297.4,948.4,294.7,951.7,294.7z"/>
	<text transform="matrix(1 0 0 1 1019.8783 310.7231)" class="st2 st3">DKK4</text>
	<rect x="950.7" y="316.7" class="st7" width="43.8" height="25"/>
	<text transform="matrix(1 0 0 1 956.5394 333.8898)" class="st2 st3">2.3%</text>
	<rect x="994.4" y="316.7" class="st7" width="43.8" height="25"/>
	<text transform="matrix(1 0 0 1 1000.2894 333.8898)" class="st2 st3">2.3%</text>
	<rect x="1038.2" y="316.7" class="st8" width="43.8" height="25"/>
	<text transform="matrix(1 0 0 1 1044.0394 333.8898)" class="st2 st3">3.4%</text>
	<rect x="1081.9" y="316.7" class="st6" width="43.8" height="25"/>
	<text transform="matrix(1 0 0 1 1087.7894 333.8898)" class="st2 st3">1.8%</text>
	<path class="st4" d="M950.1,237h173c3.3,0,6,2.7,6,6v40c0,3.3-2.7,6-6,6h-173c-3.3,0-6-2.7-6-6v-40
		C944.1,239.7,946.7,237,950.1,237z"/>
	<text transform="matrix(1 0 0 1 1018.2678 253.0316)" class="st2 st3">DKK3</text>
	<rect x="949.1" y="259" class="st5" width="43.8" height="25"/>
	<text transform="matrix(1 0 0 1 954.929 276.1982)" class="st2 st3">0.0%</text>
	<rect x="992.8" y="259" class="st9" width="43.8" height="25"/>
	<text transform="matrix(1 0 0 1 998.679 276.1982)" class="st2 st3">1.2%</text>
	<rect x="1036.6" y="259" class="st5" width="43.8" height="25"/>
	<text transform="matrix(1 0 0 1 1042.429 276.1982)" class="st2 st3">0.0%</text>
	<rect x="1080.3" y="259" class="st5" width="43.8" height="25"/>
	<text transform="matrix(1 0 0 1 1086.179 276.1982)" class="st2 st3">0.0%</text>
	<rect x="942" y="649.1" class="st1" width="196" height="63"/>
	<text transform="matrix(1 0 0 1 1083.7878 727.7758)" class="st2 st3">Groucho</text>
	<path class="st4" d="M953.5,654.6h173c3.3,0,6,2.7,6,6v40c0,3.3-2.7,6-6,6h-173c-3.3,0-6-2.7-6-6v-40
		C947.5,657.3,950.2,654.6,953.5,654.6z"/>
	<text transform="matrix(1 0 0 1 1023.3073 670.6042)" class="st2 st3">TLE3</text>
	<rect x="952.5" y="676.6" class="st5" width="43.8" height="25"/>
	<text transform="matrix(1 0 0 1 958.4132 693.7709)" class="st2 st3">0.0%</text>
	<rect x="996.3" y="676.6" class="st5" width="43.8" height="25"/>
	<text transform="matrix(1 0 0 1 1002.1632 693.7709)" class="st2 st3">0.0%</text>
	<rect x="1040" y="676.6" class="st8" width="43.8" height="25"/>
	<text transform="matrix(1 0 0 1 1045.9132 693.7709)" class="st2 st3">3.4%</text>
	<rect x="1083.8" y="676.6" class="st6" width="43.8" height="25"/>
	<text transform="matrix(1 0 0 1 1089.6632 693.7709)" class="st2 st3">1.8%</text>
	<path class="st4" d="M703.5,108.8h173c3.3,0,6,2.7,6,6v40c0,3.3-2.7,6-6,6h-173c-3.3,0-6-2.7-6-6v-40
		C697.5,111.5,700.2,108.8,703.5,108.8z"/>
	<text transform="matrix(1 0 0 1 773.3175 124.7924)" class="st2 st3">WIF1</text>
	<rect x="702.5" y="130.8" class="st5" width="43.8" height="25"/>
	<text transform="matrix(1 0 0 1 708.4132 147.959)" class="st2 st3">0.0%</text>
	<rect x="746.3" y="130.8" class="st9" width="43.8" height="25"/>
	<text transform="matrix(1 0 0 1 752.1632 147.959)" class="st2 st3">1.2%</text>
	<rect x="790" y="130.8" class="st10" width="43.8" height="25"/>
	<text transform="matrix(1 0 0 1 795.9132 147.959)" class="st2 st3">1.7%</text>
	<rect x="833.8" y="130.8" class="st11" width="43.8" height="25"/>
	<text transform="matrix(1 0 0 1 839.6632 147.959)" class="st2 st3">5.3%</text>
	<rect x="691.1" y="293.1" class="st4" width="196" height="119"/>
	<text transform="matrix(1 0 0 1 697.0079 428.0585)" class="st2 st3">WNT Dual Receptor Complex</text>
	<path class="st4" d="M702.6,298.6h173c3.3,0,6,2.7,6,6v40c0,3.3-2.7,6-6,6h-173c-3.3,0-6-2.7-6-6v-40
		C696.6,301.2,699.3,298.6,702.6,298.6z"/>
	<text transform="matrix(1 0 0 1 771.564 314.5585)" class="st2 st3">LRP5</text>
	<rect x="701.6" y="320.6" class="st12" width="43.8" height="25"/>
	<text transform="matrix(1 0 0 1 707.4493 337.7252)" class="st2 st3">5.8%</text>
	<rect x="745.3" y="320.6" class="st13" width="43.8" height="25"/>
	<text transform="matrix(1 0 0 1 751.1993 337.7252)" class="st2 st3">4.7%</text>
	<rect x="789.1" y="320.6" class="st14" width="43.8" height="25"/>
	<text transform="matrix(1 0 0 1 794.9493 337.7252)" class="st2 st3">3.4%</text>
	<rect x="832.8" y="320.6" class="st15" width="43.8" height="25"/>
	<text transform="matrix(1 0 0 1 838.6993 337.7252)" class="st2 st3">5.3%</text>
	<path class="st4" d="M702.6,354.6h173c3.3,0,6,2.7,6,6v40c0,3.3-2.7,6-6,6h-173c-3.3,0-6-2.7-6-6v-40
		C696.6,357.2,699.3,354.6,702.6,354.6z"/>
	<text transform="matrix(1 0 0 1 771.564 370.5585)" class="st2 st3">LRP6</text>
	<rect x="701.6" y="376.6" class="st5" width="43.8" height="25"/>
	<text transform="matrix(1 0 0 1 707.4493 393.7252)" class="st2 st3">0.0%</text>
	<rect x="745.3" y="376.6" class="st5" width="43.8" height="25"/>
	<text transform="matrix(1 0 0 1 751.1993 393.7252)" class="st2 st3">0.0%</text>
	<rect x="789.1" y="376.6" class="st16" width="43.8" height="25"/>
	<text transform="matrix(1 0 0 1 794.9493 393.7252)" class="st2 st3">1.7%</text>
	<rect x="832.8" y="376.6" class="st5" width="43.8" height="25"/>
	<text transform="matrix(1 0 0 1 838.6993 393.7252)" class="st2 st3">0.0%</text>
	<rect x="481.4" y="674.6" class="st17" width="132" height="24"/>
	<text transform="matrix(1 0 0 1 496.864 691.5651)" class="st2 st3">Cell proliferation</text>
	<rect x="703.7" y="618.4" class="st4" width="196.6" height="127.7"/>
	<text transform="matrix(1 0 0 1 839.6632 762.1095)" class="st2 st3">TCF/LEF</text>
	<path class="st4" d="M715.8,623.9h173c3.3,0,6,2.7,6,6v40c0,3.3-2.7,6-6,6h-173c-3.3,0-6-2.7-6-6v-40
		C709.8,626.6,712.5,623.9,715.8,623.9z"/>
	<text transform="matrix(1 0 0 1 777.0636 639.9106)" class="st2 st3">TCF7L1</text>
	<rect x="714.8" y="645.9" class="st5" width="43.8" height="25"/>
	<text transform="matrix(1 0 0 1 720.7247 663.0773)" class="st2 st3">0.0%</text>
	<rect x="758.6" y="645.9" class="st5" width="43.8" height="25"/>
	<text transform="matrix(1 0 0 1 764.4747 663.0773)" class="st2 st3">0.0%</text>
	<rect x="802.3" y="645.9" class="st8" width="43.8" height="25"/>
	<text transform="matrix(1 0 0 1 808.2247 663.0773)" class="st2 st3">3.4%</text>
	<rect x="846.1" y="645.9" class="st5" width="43.8" height="25"/>
	<text transform="matrix(1 0 0 1 851.9747 663.0773)" class="st2 st3">0.0%</text>
	<path class="st4" d="M715.2,688.6h173c3.3,0,6,2.7,6,6v40c0,3.3-2.7,6-6,6h-173c-3.3,0-6-2.7-6-6v-40
		C709.2,691.3,711.9,688.6,715.2,688.6z"/>
	<text transform="matrix(1 0 0 1 776.4413 704.6095)" class="st2 st3">TCF7L2</text>
	<rect x="714.2" y="710.6" class="st9" width="43.8" height="25"/>
	<text transform="matrix(1 0 0 1 720.1024 727.7762)" class="st2 st3">1.2%</text>
	<rect x="758" y="710.6" class="st9" width="43.8" height="25"/>
	<text transform="matrix(1 0 0 1 763.8524 727.7762)" class="st2 st3">1.2%</text>
	<rect x="801.7" y="710.6" class="st5" width="43.8" height="25"/>
	<text transform="matrix(1 0 0 1 807.6024 727.7762)" class="st2 st3">0.0%</text>
	<rect x="845.5" y="710.6" class="st5" width="43.8" height="25"/>
	<text transform="matrix(1 0 0 1 851.3524 727.7762)" class="st2 st3">0.0%</text>
	<rect x="939.1" y="397.2" class="st1" width="197.4" height="127.3"/>
	<text transform="matrix(1 0 0 1 1102.1792 540.5317)" class="st2 st3">AXIN</text>
	<path class="st4" d="M950.6,402.7h173c3.3,0,6,2.7,6,6v40c0,3.3-2.7,6-6,6h-173c-3.3,0-6-2.7-6-6v-40
		C944.6,405.4,947.3,402.7,950.6,402.7z"/>
	<text transform="matrix(1 0 0 1 1016.8956 418.7157)" class="st2 st3">AXIN1</text>
	<rect x="949.6" y="424.7" class="st7" width="43.8" height="25"/>
	<text transform="matrix(1 0 0 1 955.5016 441.8823)" class="st2 st3">2.3%</text>
	<rect x="993.4" y="424.7" class="st5" width="43.8" height="25"/>
	<text transform="matrix(1 0 0 1 999.2516 441.8823)" class="st2 st3">0.0%</text>
	<rect x="1037.1" y="424.7" class="st10" width="43.8" height="25"/>
	<text transform="matrix(1 0 0 1 1043.0016 441.8823)" class="st2 st3">1.7%</text>
	<rect x="1080.9" y="424.7" class="st6" width="43.8" height="25"/>
	<text transform="matrix(1 0 0 1 1086.7516 441.8823)" class="st2 st3">1.8%</text>
	<path class="st4" d="M952,467h173c3.3,0,6,2.7,6,6v40c0,3.3-2.7,6-6,6H952c-3.3,0-6-2.7-6-6v-40C946,469.7,948.7,467,952,467z"/>
	<text transform="matrix(1 0 0 1 1018.2582 483.0318)" class="st2 st3">AXIN2</text>
	<rect x="951" y="489" class="st9" width="43.8" height="25"/>
	<text transform="matrix(1 0 0 1 956.8641 506.1985)" class="st2 st3">1.2%</text>
	<rect x="994.7" y="489" class="st7" width="43.8" height="25"/>
	<text transform="matrix(1 0 0 1 1000.6141 506.1985)" class="st2 st3">2.3%</text>
	<rect x="1038.5" y="489" class="st10" width="43.8" height="25"/>
	<text transform="matrix(1 0 0 1 1044.3641 506.1985)" class="st2 st3">1.7%</text>
	<rect x="1082.2" y="489" class="st6" width="43.8" height="25"/>
	<text transform="matrix(1 0 0 1 1088.1141 506.1985)" class="st2 st3">1.8%</text>
	<path class="st4" d="M478.4,332.9h173c3.3,0,6,2.7,6,6v40c0,3.3-2.7,6-6,6h-173c-3.3,0-6-2.7-6-6v-40
		C472.4,335.6,475.1,332.9,478.4,332.9z"/>
	<text transform="matrix(1 0 0 1 542.7318 348.9011)" class="st2 st3">RNF43</text>
	<rect x="477.4" y="354.9" class="st5" width="43.8" height="25"/>
	<text transform="matrix(1 0 0 1 483.2792 372.0677)" class="st2 st3">0.0%</text>
	<rect x="521.2" y="354.9" class="st9" width="43.8" height="25"/>
	<text transform="matrix(1 0 0 1 527.0292 372.0677)" class="st2 st3">1.2%</text>
	<rect x="564.9" y="354.9" class="st10" width="43.8" height="25"/>
	<text transform="matrix(1 0 0 1 570.7792 372.0677)" class="st2 st3">1.7%</text>
	<rect x="608.7" y="354.9" class="st5" width="43.8" height="25"/>
	<text transform="matrix(1 0 0 1 614.5292 372.0677)" class="st2 st3">0.0%</text>
	<path class="st4" d="M713.7,533h173c3.3,0,6,2.7,6,6v40c0,3.3-2.7,6-6,6h-173c-3.3,0-6-2.7-6-6v-40
		C707.7,535.7,710.4,533,713.7,533z"/>
	<text transform="matrix(1 0 0 1 772.166 549.0402)" class="st2 st3">CTNNB1</text>
	<rect x="712.7" y="555" class="st18" width="43.8" height="25"/>
	<text transform="matrix(1 0 0 1 718.5444 572.2068)" class="st2 st3">1.2%</text>
	<rect x="756.4" y="555" class="st18" width="43.8" height="25"/>
	<text transform="matrix(1 0 0 1 762.2944 572.2068)" class="st2 st3">1.2%</text>
	<rect x="800.2" y="555" class="st16" width="43.8" height="25"/>
	<text transform="matrix(1 0 0 1 806.0444 572.2068)" class="st2 st3">1.7%</text>
	<rect x="843.9" y="555" class="st5" width="43.7" height="25"/>
	<text transform="matrix(1 0 0 1 849.7944 572.2068)" class="st2 st3">0.0%</text>
	<rect x="473" y="111.6" class="st1" width="197" height="190.9"/>
	<text transform="matrix(1 0 0 1 630.5294 318.5052)" class="st2 st3">SFRP</text>
	<path class="st4" d="M485.5,117.1h173c3.3,0,6,2.7,6,6v40c0,3.3-2.7,6-6,6h-173c-3.3,0-6-2.7-6-6v-40
		C479.5,119.8,482.2,117.1,485.5,117.1z"/>
	<text transform="matrix(1 0 0 1 549.4529 133.1116)" class="st2 st3">SFRP1</text>
	<rect x="484.5" y="139.1" class="st7" width="43.8" height="25"/>
	<text transform="matrix(1 0 0 1 490.3899 156.2783)" class="st2 st3">2.3%</text>
	<rect x="528.3" y="139.1" class="st5" width="43.8" height="25"/>
	<text transform="matrix(1 0 0 1 534.1399 156.2783)" class="st2 st3">0.0%</text>
	<rect x="572" y="139.1" class="st10" width="43.8" height="25"/>
	<text transform="matrix(1 0 0 1 577.8899 156.2783)" class="st2 st3">1.7%</text>
	<rect x="615.8" y="139.1" class="st6" width="43.8" height="25"/>
	<text transform="matrix(1 0 0 1 621.6399 156.2783)" class="st2 st3">1.8%</text>
	<path class="st4" d="M484.5,180.5h173c3.3,0,6,2.7,6,6v40c0,3.3-2.7,6-6,6h-173c-3.3,0-6-2.7-6-6v-40
		C478.5,183.1,481.2,180.5,484.5,180.5z"/>
	<text transform="matrix(1 0 0 1 548.404 196.4542)" class="st2 st3">SFRP2</text>
	<rect x="483.5" y="202.5" class="st7" width="43.8" height="25"/>
	<text transform="matrix(1 0 0 1 489.341 219.6208)" class="st2 st3">2.3%</text>
	<rect x="527.2" y="202.5" class="st9" width="43.8" height="25"/>
	<text transform="matrix(1 0 0 1 533.091 219.6208)" class="st2 st3">1.2%</text>
	<rect x="571" y="202.5" class="st5" width="43.7" height="25"/>
	<text transform="matrix(1 0 0 1 576.841 219.6208)" class="st2 st3">0.0%</text>
	<rect x="614.7" y="202.5" class="st5" width="43.8" height="25"/>
	<text transform="matrix(1 0 0 1 620.591 219.6208)" class="st2 st3">0.0%</text>
	<path class="st4" d="M485.5,245h173c3.3,0,6,2.7,6,6v40c0,3.3-2.7,6-6,6h-173c-3.3,0-6-2.7-6-6v-40
		C479.5,247.7,482.2,245,485.5,245z"/>
	<text transform="matrix(1 0 0 1 549.406 261.0054)" class="st2 st3">SFRP4</text>
	<rect x="484.5" y="267" class="st5" width="43.8" height="25"/>
	<text transform="matrix(1 0 0 1 490.343 284.1721)" class="st2 st3">0.0%</text>
	<rect x="528.2" y="267" class="st5" width="43.8" height="25"/>
	<text transform="matrix(1 0 0 1 534.093 284.1721)" class="st2 st3">0.0%</text>
	<rect x="572" y="267" class="st10" width="43.8" height="25"/>
	<text transform="matrix(1 0 0 1 577.843 284.1721)" class="st2 st3">1.7%</text>
	<rect x="615.7" y="267" class="st5" width="43.8" height="25"/>
	<text transform="matrix(1 0 0 1 621.593 284.1721)" class="st2 st3">0.0%</text>
	<path class="st4" d="M703.5,180.1h173c3.3,0,6,2.7,6,6v40c0,3.3-2.7,6-6,6h-173c-3.3,0-6-2.7-6-6v-40
		C697.5,182.8,700.2,180.1,703.5,180.1z"/>
	<text transform="matrix(1 0 0 1 750.0992 211.0692)" class="st2 st3">WNT ligands</text>
	<path class="st4" d="M482.1,533.2h173c3.3,0,6,2.7,6,6v40c0,3.3-2.7,6-6,6h-173c-3.3,0-6-2.7-6-6v-40
		C476.1,535.9,478.7,533.2,482.1,533.2z"/>
	<text transform="matrix(1 0 0 1 545.2156 549.1937)" class="st2 st3">GSK3B</text>
	<rect x="481.1" y="555.2" class="st5" width="43.8" height="25"/>
	<text transform="matrix(1 0 0 1 486.9354 572.3603)" class="st2 st3">0.0%</text>
	<rect x="524.8" y="555.2" class="st9" width="43.8" height="25"/>
	<text transform="matrix(1 0 0 1 530.6854 572.3603)" class="st2 st3">1.2%</text>
	<rect x="568.6" y="555.2" class="st5" width="43.8" height="25"/>
	<text transform="matrix(1 0 0 1 574.4354 572.3603)" class="st2 st3">0.0%</text>
	<rect x="612.3" y="555.2" class="st5" width="43.8" height="25"/>
	<text transform="matrix(1 0 0 1 618.1854 572.3603)" class="st2 st3">0.0%</text>
	<path class="st4" d="M957,553.3h173c3.3,0,6,2.7,6,6v40c0,3.3-2.7,6-6,6H957c-3.3,0-6-2.7-6-6v-40C951,556,953.7,553.3,957,553.3z"
		/>
	<text transform="matrix(1 0 0 1 1019.3506 569.2852)" class="st2 st3">AMER1</text>
	<rect x="956" y="575.3" class="st5" width="43.8" height="25"/>
	<text transform="matrix(1 0 0 1 961.8428 592.4519)" class="st2 st3">0.0%</text>
	<rect x="999.7" y="575.3" class="st7" width="43.8" height="25"/>
	<text transform="matrix(1 0 0 1 1005.5928 592.4519)" class="st2 st3">2.3%</text>
	<rect x="1043.5" y="575.3" class="st5" width="43.8" height="25"/>
	<text transform="matrix(1 0 0 1 1049.3428 592.4519)" class="st2 st3">0.0%</text>
	<rect x="1087.2" y="575.3" class="st5" width="43.8" height="25"/>
	<text transform="matrix(1 0 0 1 1093.0928 592.4519)" class="st2 st3">0.0%</text>
	<polygon points="796.9,610.5 804.9,610.4 801.1,618.4 	"/>
	<line class="st19" x1="800.6" y1="585" x2="800.9" y2="610.4"/>
	<line class="st20" x1="863.4" y1="528.6" x2="866.5" y2="536"/>
	<line class="st19" x1="939.1" y1="501.6" x2="865" y2="532.3"/>
	<polygon points="785.5,285 793.5,285.1 789.5,293.1 	"/>
	<line class="st19" x1="789.9" y1="232.1" x2="789.5" y2="285.1"/>
	<polygon points="621.4,681.3 621.5,689.3 613.4,685.4 	"/>
	<line class="st19" x1="703.7" y1="683.9" x2="621.4" y2="685.3"/>
	<polygon points="930.2,418.4 933.4,411 939.1,417.9 	"/>
	<line class="st19" x1="887.1" y1="395.2" x2="931.8" y2="414.7"/>
	<line class="st20" x1="887.1" y1="300.4" x2="890.6" y2="307.6"/>
	<line class="st19" x1="937.5" y1="280.4" x2="888.9" y2="304"/>
	<line class="st20" x1="902.3" y1="677.6" x2="902.4" y2="685.6"/>
	<line class="st19" x1="942" y1="681.3" x2="902.3" y2="681.6"/>
	<line class="st20" x1="786" y1="178.1" x2="794" y2="178.1"/>
	<line class="st19" x1="790" y1="160.8" x2="790" y2="178.1"/>
	<line class="st20" x1="695.6" y1="210.5" x2="695.5" y2="202.5"/>
	<line class="st19" x1="670" y1="206.6" x2="695.5" y2="206.5"/>
	<line class="st20" x1="895" y1="562.9" x2="894.3" y2="570.9"/>
	<line class="st19" x1="951" y1="571.6" x2="894.7" y2="566.9"/>
	<polygon points="578.6,526 586.6,526 582.6,534 	"/>
	<line class="st19" x1="690.7" y1="401.3" x2="581.6" y2="405.3"/>
	<line class="st19" x1="582.1" y1="406.5" x2="583.1" y2="534.1"/>
	<line class="st20" x1="689.2" y1="359.4" x2="689" y2="351.4"/>
	<line class="st19" x1="657.4" y1="356.3" x2="689.1" y2="355.4"/>
	<line class="st20" x1="705.7" y1="563.1" x2="705.7" y2="555.1"/>
	<line class="st19" x1="661.1" y1="559.1" x2="705.7" y2="559.1"/>
	<text transform="matrix(1 0 0 1 472.966 88.3898)" class="st21 st22">Wnt pathway</text>
</g>
</svg>
