<?xml version="1.0" encoding="utf-8"?>
<!-- Generator: Adobe Illustrator 22.0.0, SVG Export Plug-In . SVG Version: 6.00 Build 0)  -->
<svg version="1.1" id="图层_1" xmlns="http://www.w3.org/2000/svg" xmlns:xlink="http://www.w3.org/1999/xlink" x="0px" y="0px"
	 viewBox="0 0 1256.4 673.9" style="enable-background:new 0 0 1256.4 673.9;" xml:space="preserve">
<style type="text/css">
	.st0{fill:#FFFFFF;stroke:#000000;stroke-miterlimit:10;}
	.st1{fill:#FFFFFF;fill-opacity:0.5;stroke:#000000;}
	.st2{font-family:'ArialMT';}
	.st3{font-size:14px;}
	.st4{fill:#B8B8FF;stroke:#000000;}
	.st5{fill:#F0F0FF;stroke:#000000;}
	.st6{fill:#CDCDFF;stroke:#000000;}
	.st7{fill:#E5E5FF;stroke:#000000;}
	.st8{fill:#FFFFFF;fill-opacity:0;stroke:#000000;stroke-opacity:0;}
	.st9{fill:#FFFFFF;fill-opacity:0.5;stroke:#CCCCCC;}
	.st10{fill:#D4D4FF;stroke:#000000;}
	.st11{fill:#8989FF;stroke:#000000;}
	.st12{fill:#6969FF;stroke:#000000;}
	.st13{fill:#8585FF;stroke:#000000;}
	.st14{fill:#B3B3FF;stroke:#000000;}
	.st15{fill:#DCDCFF;stroke:#000000;}
	.st16{fill:none;stroke:#000000;stroke-width:2;}
	.st17{fill:none;stroke:#000000;}
	.st18{font-family:'Arial-Black';}
	.st19{font-size:18px;}
</style>
<g>
	<rect x="174" y="15.4" class="st0" width="716" height="448.5"/>
	<path class="st1" d="M421.2,140.6h173c3.3,0,6,2.7,6,6v40c0,3.3-2.7,6-6,6h-173c-3.3,0-6-2.7-6-6v-40
		C415.2,143.3,417.9,140.6,421.2,140.6z"/>
	<text transform="matrix(1 0 0 1 487.1332 171.6005)" class="st2 st3">MDM2</text>
	<path class="st1" d="M655.8,310.2h174c3.3,0,6,2.7,6,6v40c0,3.3-2.7,6-6,6h-174c-3.3,0-6-2.7-6-6v-40
		C649.8,312.9,652.5,310.2,655.8,310.2z"/>
	<text transform="matrix(1 0 0 1 718.7032 326.247)" class="st2 st3">FBXW7</text>
	<rect x="654.8" y="332.2" class="st4" width="43.8" height="25"/>
	<text transform="matrix(1 0 0 1 660.692 349.4137)" class="st2 st3">3.5%</text>
	<rect x="698.6" y="332.2" class="st5" width="43.8" height="25"/>
	<text transform="matrix(1 0 0 1 704.442 349.4137)" class="st2 st3">0.7%</text>
	<rect x="742.3" y="332.2" class="st6" width="43.8" height="25"/>
	<text transform="matrix(1 0 0 1 748.192 349.4137)" class="st2 st3">2.1%</text>
	<rect x="786.1" y="332.2" class="st7" width="43.8" height="25"/>
	<text transform="matrix(1 0 0 1 791.942 349.4137)" class="st2 st3">1.0%</text>
	<path class="st1" d="M196.8,225.6h173c3.3,0,6,2.7,6,6v40c0,3.3-2.7,6-6,6h-173c-3.3,0-6-2.7-6-6v-40
		C190.8,228.3,193.5,225.6,196.8,225.6z"/>
	<text transform="matrix(1 0 0 1 259.1555 256.6005)" class="st2 st3">CCND1</text>
	<rect x="439.5" y="411.6" class="st8" width="156" height="24"/>
	<text transform="matrix(1 0 0 1 448.9783 428.6005)" class="st2 st3">Cell cycle progression</text>
	<path class="st1" d="M423.1,313.7h173c3.3,0,6,2.7,6,6v40c0,3.3-2.7,6-6,6h-173c-3.3,0-6-2.7-6-6v-40
		C417.1,316.4,419.8,313.7,423.1,313.7z"/>
	<text transform="matrix(1 0 0 1 485.8867 344.7298)" class="st2 st3">CCNE1</text>
	<rect x="803.1" y="226.5" class="st8" width="78" height="24"/>
	<text transform="matrix(1 0 0 1 811.3389 243.5401)" class="st2 st3">Apoptosis</text>
	<rect x="208.3" y="314.6" class="st9" width="150" height="52"/>
	<text transform="matrix(1 0 0 1 269.652 345.6005)" class="st2 st3">RB1</text>
	<path class="st1" d="M196.8,397.6h173c3.3,0,6,2.7,6,6v40c0,3.3-2.7,6-6,6h-173c-3.3,0-6-2.7-6-6v-40
		C190.8,400.3,193.5,397.6,196.8,397.6z"/>
	<text transform="matrix(1 0 0 1 266.5383 428.6005)" class="st2 st3">E2F3</text>
	<path class="st1" d="M196.3,140.6h174c3.3,0,6,2.7,6,6v40c0,3.3-2.7,6-6,6h-174c-3.3,0-6-2.7-6-6v-40
		C190.3,143.3,193,140.6,196.3,140.6z"/>
	<text transform="matrix(1 0 0 1 254.8728 156.6005)" class="st2 st3">CDKN2A</text>
	<rect x="195.3" y="162.6" class="st10" width="43.8" height="25"/>
	<text transform="matrix(1 0 0 1 201.1442 179.7672)" class="st2 st3">1.7%</text>
	<rect x="239" y="162.6" class="st7" width="43.8" height="25"/>
	<text transform="matrix(1 0 0 1 244.8942 179.7672)" class="st2 st3">1.0%</text>
	<rect x="282.8" y="162.6" class="st7" width="43.8" height="25"/>
	<text transform="matrix(1 0 0 1 288.6442 179.7672)" class="st2 st3">1.0%</text>
	<rect x="326.5" y="162.6" class="st5" width="43.8" height="25"/>
	<text transform="matrix(1 0 0 1 332.3942 179.7672)" class="st2 st3">0.7%</text>
	<path class="st1" d="M649.3,138h174c3.3,0,6,2.7,6,6v40c0,3.3-2.7,6-6,6h-174c-3.3,0-6-2.7-6-6v-40C643.3,140.7,646,138,649.3,138z
		"/>
	<text transform="matrix(1 0 0 1 719.5818 153.9885)" class="st2 st3">TP53</text>
	<rect x="648.3" y="160" class="st11" width="43.8" height="25"/>
	<text transform="matrix(1 0 0 1 654.1877 177.1551)" class="st2 st3">9.4%</text>
	<rect x="692.1" y="160" class="st12" width="43.8" height="25"/>
	<text transform="matrix(1 0 0 1 693.9377 177.1551)" class="st2 st3">17.4%</text>
	<rect x="735.8" y="160" class="st11" width="43.8" height="25"/>
	<text transform="matrix(1 0 0 1 741.6877 177.1551)" class="st2 st3">9.4%</text>
	<rect x="779.6" y="160" class="st13" width="43.8" height="25"/>
	<text transform="matrix(1 0 0 1 781.4377 177.1551)" class="st2 st3">10.1%</text>
	<path class="st1" d="M648.4,37.9h174c3.3,0,6,2.7,6,6v40c0,3.3-2.7,6-6,6h-174c-3.3,0-6-2.7-6-6v-40
		C642.4,40.6,645.1,37.9,648.4,37.9z"/>
	<text transform="matrix(1 0 0 1 721.1857 53.8935)" class="st2 st3">ATM</text>
	<rect x="647.4" y="59.9" class="st14" width="43.8" height="25"/>
	<text transform="matrix(1 0 0 1 653.3171 77.0602)" class="st2 st3">3.8%</text>
	<rect x="691.2" y="59.9" class="st5" width="43.8" height="25"/>
	<text transform="matrix(1 0 0 1 697.0671 77.0602)" class="st2 st3">0.7%</text>
	<rect x="734.9" y="59.9" class="st6" width="43.8" height="25"/>
	<text transform="matrix(1 0 0 1 740.8171 77.0602)" class="st2 st3">2.1%</text>
	<rect x="778.7" y="59.9" class="st15" width="43.8" height="25"/>
	<text transform="matrix(1 0 0 1 784.5671 77.0602)" class="st2 st3">1.4%</text>
	<line class="st16" x1="360.3" y1="336.3" x2="360.3" y2="344.3"/>
	<line class="st17" x1="417.1" y1="340.1" x2="360.3" y2="340.3"/>
	<line class="st16" x1="604.1" y1="334.3" x2="604.2" y2="342.3"/>
	<line class="st17" x1="649.8" y1="337.6" x2="604.1" y2="338.3"/>
	<line class="st16" x1="279.3" y1="395.6" x2="287.3" y2="395.6"/>
	<line class="st17" x1="283.3" y1="366.6" x2="283.3" y2="395.6"/>
	<line class="st16" x1="279.3" y1="312.6" x2="287.3" y2="312.6"/>
	<line class="st17" x1="283.3" y1="277.6" x2="283.3" y2="312.6"/>
	<line class="st16" x1="279.3" y1="223.6" x2="287.3" y2="223.6"/>
	<line class="st17" x1="283.3" y1="192.6" x2="283.3" y2="223.6"/>
	<polygon points="608.2,161.5 608.3,169.5 600.2,165.5 	"/>
	<line class="st17" x1="643.3" y1="165.1" x2="608.2" y2="165.5"/>
	<line class="st16" x1="413.2" y1="170.6" x2="413.2" y2="162.6"/>
	<line class="st17" x1="376.3" y1="166.6" x2="413.2" y2="166.6"/>
	<polygon points="431.5,427.6 431.5,419.6 439.5,423.6 	"/>
	<line class="st17" x1="375.8" y1="423.6" x2="431.5" y2="423.6"/>
	<line class="st16" x1="641.4" y1="169.1" x2="641.3" y2="161.1"/>
	<line class="st17" x1="600.2" y1="165.5" x2="641.3" y2="165.1"/>
	<polygon points="816.2,225.2 820.8,218.7 825.1,226.5 	"/>
	<line class="st17" x1="773.2" y1="190" x2="818.5" y2="221.9"/>
	<polygon points="732,130 740,130 736.1,138 	"/>
	<line class="st17" x1="735.7" y1="89.9" x2="736" y2="130"/>
	<line class="st16" x1="542.3" y1="309.3" x2="547.2" y2="315.7"/>
	<line class="st17" x1="702.8" y1="190" x2="544.7" y2="312.5"/>
	<text transform="matrix(1 0 0 1 190.2692 40.3898)" class="st18 st19">Cell cycle pathway</text>
</g>
</svg>
