<?xml version="1.0" encoding="utf-8"?>
<!-- Generator: Adobe Illustrator 22.0.0, SVG Export Plug-In . SVG Version: 6.00 Build 0)  -->
<svg version="1.1" id="图层_1" xmlns="http://www.w3.org/2000/svg" xmlns:xlink="http://www.w3.org/1999/xlink" x="0px" y="0px"
	 viewBox="0 0 1699.8 911.7" style="enable-background:new 0 0 1699.8 911.7;" xml:space="preserve">
<style type="text/css">
	.st0{fill:#FFFFFF;stroke:#000000;stroke-miterlimit:10;}
	.st1{fill:#FFFFFF;fill-opacity:0.5;stroke:#000000;}
	.st2{font-family:'ArialMT';}
	.st3{font-size:14px;}
	.st4{fill:#B3B3FF;stroke:#000000;}
	.st5{fill:#F0F0FF;stroke:#000000;}
	.st6{fill:#C1C1FF;stroke:#000000;}
	.st7{fill:#DCDCFF;stroke:#000000;}
	.st8{fill:#BCBCFF;stroke:#000000;}
	.st9{fill:#F8F8FF;stroke:#000000;}
	.st10{fill:#ACACFF;stroke:#000000;}
	.st11{fill:#B8B8FF;stroke:#000000;}
	.st12{fill:#CDCDFF;stroke:#000000;}
	.st13{fill:#E5E5FF;stroke:#000000;}
	.st14{fill:#FFFFFF;fill-opacity:0.5;stroke:#CCCCCC;}
	.st15{fill:#C7C7FF;stroke:#000000;}
	.st16{fill:#D4D4FF;stroke:#000000;}
	.st17{fill:#FFFFFF;fill-opacity:0;stroke:#000000;stroke-opacity:0;}
	.st18{fill:none;stroke:#000000;}
	.st19{fill:none;stroke:#000000;stroke-width:2;}
	.st20{font-family:'Arial-BoldMT';}
	.st21{font-size:18px;}
</style>
<rect x="68" y="197.9" class="st0" width="1279" height="437"/>
<rect x="936.4" y="278.6" class="st1" width="196.9" height="132.5"/>
<path class="st1" d="M948.8,353.6h173c3.3,0,6,2.7,6,6v40c0,3.3-2.7,6-6,6h-173c-3.3,0-6-2.7-6-6v-40
	C942.8,356.3,945.5,353.6,948.8,353.6z"/>
<text transform="matrix(1 0 0 1 1006.5609 369.5912)" class="st2 st3">CREBBP</text>
<rect x="947.8" y="375.6" class="st4" width="43.8" height="25"/>
<text transform="matrix(1 0 0 1 953.722 392.7579)" class="st2 st3">3.8%</text>
<rect x="991.6" y="375.6" class="st5" width="43.8" height="25"/>
<text transform="matrix(1 0 0 1 997.472 392.7579)" class="st2 st3">0.7%</text>
<rect x="1035.3" y="375.6" class="st6" width="43.8" height="25"/>
<text transform="matrix(1 0 0 1 1041.2219 392.7579)" class="st2 st3">2.8%</text>
<rect x="1079.1" y="375.6" class="st7" width="43.8" height="25"/>
<text transform="matrix(1 0 0 1 1084.9719 392.7579)" class="st2 st3">1.4%</text>
<path class="st1" d="M947.9,284.1h173c3.3,0,6,2.7,6,6v40c0,3.3-2.7,6-6,6h-173c-3.3,0-6-2.7-6-6v-40
	C941.9,286.8,944.6,284.1,947.9,284.1z"/>
<text transform="matrix(1 0 0 1 1013.4155 300.0916)" class="st2 st3">EP300</text>
<rect x="946.9" y="306.1" class="st8" width="43.8" height="25"/>
<text transform="matrix(1 0 0 1 952.8076 323.2582)" class="st2 st3">3.1%</text>
<rect x="990.7" y="306.1" class="st9" width="43.8" height="25"/>
<text transform="matrix(1 0 0 1 992.5576 323.2582)" class="st2 st3">&lt;0.5%</text>
<rect x="1034.4" y="306.1" class="st7" width="43.7" height="25"/>
<text transform="matrix(1 0 0 1 1040.3076 323.2582)" class="st2 st3">1.4%</text>
<rect x="1078.2" y="306.1" class="st5" width="43.8" height="25"/>
<text transform="matrix(1 0 0 1 1084.0576 323.2582)" class="st2 st3">0.7%</text>
<path class="st1" d="M88.8,358.3h173c3.3,0,6,2.7,6,6v40c0,3.3-2.7,6-6,6h-173c-3.3,0-6-2.7-6-6v-40C82.8,361,85.5,358.3,88.8,358.3
	z"/>
<text transform="matrix(1 0 0 1 151.9448 374.303)" class="st2 st3">CNTN6</text>
<rect x="87.8" y="380.3" class="st10" width="43.8" height="25"/>
<text transform="matrix(1 0 0 1 93.6542 397.4697)" class="st2 st3">4.5%</text>
<rect x="131.5" y="380.3" class="st7" width="43.8" height="25"/>
<text transform="matrix(1 0 0 1 137.4042 397.4697)" class="st2 st3">1.4%</text>
<rect x="175.3" y="380.3" class="st5" width="43.8" height="25"/>
<text transform="matrix(1 0 0 1 181.1542 397.4697)" class="st2 st3">0.7%</text>
<rect x="219" y="380.3" class="st7" width="43.8" height="25"/>
<text transform="matrix(1 0 0 1 224.9042 397.4697)" class="st2 st3">1.4%</text>
<rect x="735.3" y="325.6" class="st1" width="150" height="52"/>
<text transform="matrix(1 0 0 1 751.3563 356.5912)" class="st2 st3">CLEAVED NOTCH</text>
<path class="st1" d="M721.3,225.4h173c3.3,0,6,2.7,6,6v40c0,3.3-2.7,6-6,6h-173c-3.3,0-6-2.7-6-6v-40
	C715.3,228,718,225.4,721.3,225.4z"/>
<text transform="matrix(1 0 0 1 783.6562 241.3537)" class="st2 st3">FBXW7</text>
<rect x="720.3" y="247.4" class="st11" width="43.8" height="25"/>
<text transform="matrix(1 0 0 1 726.145 264.5203)" class="st2 st3">3.5%</text>
<rect x="764" y="247.4" class="st5" width="43.8" height="25"/>
<text transform="matrix(1 0 0 1 769.895 264.5203)" class="st2 st3">0.7%</text>
<rect x="807.8" y="247.4" class="st12" width="43.8" height="25"/>
<text transform="matrix(1 0 0 1 813.645 264.5203)" class="st2 st3">2.1%</text>
<rect x="851.5" y="247.4" class="st13" width="43.8" height="25"/>
<text transform="matrix(1 0 0 1 857.395 264.5203)" class="st2 st3">1.0%</text>
<rect x="841.3" y="487.7" class="st14" width="391.2" height="123"/>
<path class="st1" d="M854.8,553.2h173c3.3,0,6,2.7,6,6v40c0,3.3-2.7,6-6,6h-173c-3.3,0-6-2.7-6-6v-40
	C848.8,555.9,851.5,553.2,854.8,553.2z"/>
<text transform="matrix(1 0 0 1 916.7758 569.1757)" class="st2 st3">NCOR2</text>
<rect x="853.8" y="575.2" class="st8" width="43.8" height="25"/>
<text transform="matrix(1 0 0 1 859.6542 592.3424)" class="st2 st3">3.1%</text>
<rect x="897.5" y="575.2" class="st7" width="43.8" height="25"/>
<text transform="matrix(1 0 0 1 903.4042 592.3424)" class="st2 st3">1.4%</text>
<rect x="941.3" y="575.2" class="st7" width="43.8" height="25"/>
<text transform="matrix(1 0 0 1 947.1542 592.3424)" class="st2 st3">1.4%</text>
<rect x="985" y="575.2" class="st13" width="43.8" height="25"/>
<text transform="matrix(1 0 0 1 990.9042 592.3424)" class="st2 st3">1.0%</text>
<path class="st1" d="M1047.9,493.4h173c3.3,0,6,2.7,6,6v40c0,3.3-2.7,6-6,6h-173c-3.3,0-6-2.7-6-6v-40
	C1041.9,496,1044.6,493.4,1047.9,493.4z"/>
<text transform="matrix(1 0 0 1 1115.3782 509.3537)" class="st2 st3">SPEN</text>
<rect x="1046.9" y="515.4" class="st8" width="43.8" height="25"/>
<text transform="matrix(1 0 0 1 1052.8152 532.5203)" class="st2 st3">3.1%</text>
<rect x="1090.7" y="515.4" class="st15" width="43.8" height="25"/>
<text transform="matrix(1 0 0 1 1096.5652 532.5203)" class="st2 st3">2.4%</text>
<rect x="1134.4" y="515.4" class="st16" width="43.8" height="25"/>
<text transform="matrix(1 0 0 1 1140.3152 532.5203)" class="st2 st3">1.7%</text>
<rect x="1178.2" y="515.4" class="st13" width="43.8" height="25"/>
<text transform="matrix(1 0 0 1 1184.0652 532.5203)" class="st2 st3">1.0%</text>
<path class="st1" d="M852.8,493.2h173c3.3,0,6,2.7,6,6v40c0,3.3-2.7,6-6,6h-173c-3.3,0-6-2.7-6-6v-40
	C846.8,495.9,849.5,493.2,852.8,493.2z"/>
<text transform="matrix(1 0 0 1 914.7758 509.1757)" class="st2 st3">NCOR1</text>
<rect x="851.8" y="515.2" class="st8" width="43.8" height="25"/>
<text transform="matrix(1 0 0 1 857.6542 532.3423)" class="st2 st3">3.1%</text>
<rect x="895.5" y="515.2" class="st13" width="43.8" height="25"/>
<text transform="matrix(1 0 0 1 901.4042 532.3423)" class="st2 st3">1.0%</text>
<rect x="939.3" y="515.2" class="st5" width="43.8" height="25"/>
<text transform="matrix(1 0 0 1 945.1542 532.3423)" class="st2 st3">0.7%</text>
<rect x="983" y="515.2" class="st9" width="43.8" height="25"/>
<text transform="matrix(1 0 0 1 984.9042 532.3423)" class="st2 st3">&lt;0.5%</text>
<rect x="1282.5" y="550.9" class="st17" width="156" height="24"/>
<text transform="matrix(1 0 0 1 1184.0981 350.3633)" class="st2 st3">Cell growth, apoptosis</text>
<path class="st1" d="M418.7,231.2h173c3.3,0,6,2.7,6,6v40c0,3.3-2.7,6-6,6h-173c-3.3,0-6-2.7-6-6v-40
	C412.7,233.9,415.4,231.2,418.7,231.2z"/>
<text transform="matrix(1 0 0 1 487.6696 247.2435)" class="st2 st3">JAG2</text>
<rect x="417.7" y="253.2" class="st16" width="43.8" height="25"/>
<text transform="matrix(1 0 0 1 423.5515 270.4102)" class="st2 st3">1.7%</text>
<rect x="461.4" y="253.2" class="st5" width="43.8" height="25"/>
<text transform="matrix(1 0 0 1 467.3015 270.4102)" class="st2 st3">0.7%</text>
<rect x="505.2" y="253.2" class="st7" width="43.7" height="25"/>
<text transform="matrix(1 0 0 1 511.0515 270.4102)" class="st2 st3">1.4%</text>
<rect x="548.9" y="253.2" class="st9" width="43.8" height="25"/>
<text transform="matrix(1 0 0 1 550.8015 270.4102)" class="st2 st3">&lt;0.5%</text>
<rect x="312.6" y="320.5" class="st1" width="390.4" height="133"/>
<path class="st1" d="M515,394.8h173c3.3,0,6,2.7,6,6v40c0,3.3-2.7,6-6,6H515c-3.3,0-6-2.7-6-6v-40C509,397.5,511.7,394.8,515,394.8z
	"/>
<text transform="matrix(1 0 0 1 572.7032 410.8198)" class="st2 st3">NOTCH4</text>
<rect x="514" y="416.8" class="st8" width="43.7" height="25"/>
<text transform="matrix(1 0 0 1 519.8575 433.9865)" class="st2 st3">3.1%</text>
<rect x="557.7" y="416.8" class="st9" width="43.8" height="25"/>
<text transform="matrix(1 0 0 1 559.6075 433.9865)" class="st2 st3">&lt;0.5%</text>
<rect x="601.5" y="416.8" class="st7" width="43.8" height="25"/>
<text transform="matrix(1 0 0 1 607.3575 433.9865)" class="st2 st3">1.4%</text>
<rect x="645.2" y="416.8" class="st13" width="43.8" height="25"/>
<text transform="matrix(1 0 0 1 651.1075 433.9865)" class="st2 st3">1.0%</text>
<path class="st1" d="M324.1,396h173c3.3,0,6,2.7,6,6v40c0,3.3-2.7,6-6,6h-173c-3.3,0-6-2.7-6-6v-40C318.1,398.7,320.8,396,324.1,396
	z"/>
<text transform="matrix(1 0 0 1 381.8559 411.9977)" class="st2 st3">NOTCH3</text>
<rect x="323.1" y="418" class="st12" width="43.8" height="25"/>
<text transform="matrix(1 0 0 1 329.0102 435.1644)" class="st2 st3">2.1%</text>
<rect x="366.9" y="418" class="st7" width="43.8" height="25"/>
<text transform="matrix(1 0 0 1 372.7602 435.1644)" class="st2 st3">1.4%</text>
<rect x="410.6" y="418" class="st5" width="43.8" height="25"/>
<text transform="matrix(1 0 0 1 416.5101 435.1644)" class="st2 st3">0.7%</text>
<rect x="454.4" y="418" class="st9" width="43.8" height="25"/>
<text transform="matrix(1 0 0 1 456.2601 435.1644)" class="st2 st3">&lt;0.5%</text>
<path class="st1" d="M518.5,327.2h173c3.3,0,6,2.7,6,6v40c0,3.3-2.7,6-6,6h-173c-3.3,0-6-2.7-6-6v-40
	C512.5,329.9,515.2,327.2,518.5,327.2z"/>
<text transform="matrix(1 0 0 1 576.2371 343.1757)" class="st2 st3">NOTCH2</text>
<rect x="517.5" y="349.2" class="st15" width="43.8" height="25"/>
<text transform="matrix(1 0 0 1 523.3914 366.3424)" class="st2 st3">2.4%</text>
<rect x="561.3" y="349.2" class="st16" width="43.8" height="25"/>
<text transform="matrix(1 0 0 1 567.1414 366.3424)" class="st2 st3">1.7%</text>
<rect x="605" y="349.2" class="st9" width="43.8" height="25"/>
<text transform="matrix(1 0 0 1 606.8914 366.3424)" class="st2 st3">&lt;0.5%</text>
<rect x="648.8" y="349.2" class="st7" width="43.8" height="25"/>
<text transform="matrix(1 0 0 1 654.6414 366.3424)" class="st2 st3">1.4%</text>
<path class="st1" d="M324.1,326h173c3.3,0,6,2.7,6,6v40c0,3.3-2.7,6-6,6h-173c-3.3,0-6-2.7-6-6v-40C318.1,328.7,320.8,326,324.1,326
	z"/>
<text transform="matrix(1 0 0 1 381.8559 341.9978)" class="st2 st3">NOTCH1</text>
<rect x="323.1" y="348" class="st6" width="43.8" height="25"/>
<text transform="matrix(1 0 0 1 329.0102 365.1644)" class="st2 st3">2.8%</text>
<rect x="366.9" y="348" class="st5" width="43.8" height="25"/>
<text transform="matrix(1 0 0 1 372.7602 365.1644)" class="st2 st3">0.7%</text>
<rect x="410.6" y="348" class="st7" width="43.8" height="25"/>
<text transform="matrix(1 0 0 1 416.5101 365.1644)" class="st2 st3">1.4%</text>
<rect x="454.4" y="348" class="st9" width="43.8" height="25"/>
<text transform="matrix(1 0 0 1 456.2601 365.1644)" class="st2 st3">&lt;0.5%</text>
<polygon points="928.6,352 928.3,344 936.4,347.8 "/>
<line class="st18" x1="885.3" y1="349.3" x2="928.4" y2="348"/>
<line class="st19" x1="805.6" y1="323.7" x2="813.6" y2="323.5"/>
<line class="st18" x1="808.4" y1="277.4" x2="809.6" y2="323.6"/>
<line class="st19" x1="310.6" y1="389.4" x2="310.7" y2="381.4"/>
<line class="st18" x1="267.8" y1="385.1" x2="310.6" y2="385.4"/>
<polygon points="727.4,356.2 727.3,348.2 735.3,352.2 "/>
<line class="st18" x1="697.5" y1="352.5" x2="727.3" y2="352.2"/>
<line class="st19" x1="1177.9" y1="350.4" x2="1177.8" y2="342.4"/>
<line class="st19" x1="1039.5" y1="413.1" x2="1031.5" y2="413.1"/>
<line class="st18" x1="1036.3" y1="487.7" x2="1035.5" y2="413.1"/>
<polygon points="502.3,312.6 510.3,312.4 506.5,320.5 "/>
<line class="st18" x1="505.7" y1="283.2" x2="506.3" y2="312.5"/>
<line class="st18" x1="1133.3" y1="345.8" x2="1176.4" y2="345.6"/>
<text transform="matrix(1 0 0 1 84 227.3898)" class="st20 st21">Notch pathway</text>
</svg>
