<?xml version="1.0" encoding="utf-8"?>
<!-- Generator: Adobe Illustrator 22.0.0, SVG Export Plug-In . SVG Version: 6.00 Build 0)  -->
<svg version="1.1" id="图层_1" xmlns="http://www.w3.org/2000/svg" xmlns:xlink="http://www.w3.org/1999/xlink" x="0px" y="0px"
	 viewBox="0 0 1380.5 740.5" style="enable-background:new 0 0 1380.5 740.5;" xml:space="preserve">
<style type="text/css">
	.st0{fill:#FFFFFF;stroke:#000000;stroke-miterlimit:10;}
	.st1{fill:#FFFFFF;fill-opacity:0.5;stroke:#CCCCCC;}
	.st2{font-family:'ArialMT';}
	.st3{font-size:14px;}
	.st4{fill:#FFFFFF;fill-opacity:0.5;stroke:#000000;}
	.st5{fill:#DCDCFF;stroke:#000000;}
	.st6{fill:#FF0000;stroke:#000000;}
	.st7{fill:#D4D4FF;stroke:#000000;}
	.st8{fill:#C7C7FF;stroke:#000000;}
	.st9{fill:#F0F0FF;stroke:#000000;}
	.st10{fill:#F8F8FF;stroke:#000000;}
	.st11{fill:#C1C1FF;stroke:#000000;}
	.st12{fill:#CDCDFF;stroke:#000000;}
	.st13{fill:#E5E5FF;stroke:#000000;}
	.st14{fill:#FFD4D4;stroke:#000000;}
	.st15{fill:#FFE5E5;stroke:#000000;}
	.st16{fill:#FFFFFF;fill-opacity:0;stroke:#000000;stroke-opacity:0;}
	.st17{fill:#B3B3FF;stroke:#000000;}
	.st18{fill:#FFBCBC;stroke:#000000;}
	.st19{fill:none;stroke:#000000;stroke-width:2;}
	.st20{fill:none;stroke:#000000;}
	.st21{font-family:'Arial-BoldMT';}
	.st22{font-size:18px;}
</style>
<g>
	<rect x="181" y="5.4" class="st0" width="705" height="543"/>
	<rect x="673.6" y="137.1" class="st1" width="196" height="63"/>
	<text transform="matrix(1 0 0 1 757.2015 216.1013)" class="st2 st3">DKK</text>
	<path class="st4" d="M685.1,142.6h173c3.3,0,6,2.7,6,6v40c0,3.3-2.7,6-6,6h-173c-3.3,0-6-2.7-6-6v-40
		C679.1,145.3,681.8,142.6,685.1,142.6z"/>
	<text transform="matrix(1 0 0 1 747.0844 173.6013)" class="st2 st3">DKK1-4</text>
	<rect x="682.2" y="328.6" class="st1" width="197" height="122"/>
	<text transform="matrix(1 0 0 1 753.9008 466.5479)" class="st2 st3">Groucho</text>
	<path class="st4" d="M693.7,334.1h174c3.3,0,6,2.7,6,6v40c0,3.3-2.7,6-6,6h-174c-3.3,0-6-2.7-6-6v-40
		C687.7,336.8,690.4,334.1,693.7,334.1z"/>
	<text transform="matrix(1 0 0 1 764.0179 350.0969)" class="st2 st3">TLE1</text>
	<rect x="692.7" y="356.1" class="st5" width="43.8" height="25"/>
	<text transform="matrix(1 0 0 1 698.6239 373.2635)" class="st2 st3">1.4%</text>
	<rect x="736.5" y="356.1" class="st6" width="43.8" height="25"/>
	<text transform="matrix(1 0 0 1 742.3739 373.2635)" class="st2 st3">NaN%</text>
	<rect x="780.2" y="356.1" class="st7" width="43.8" height="25"/>
	<text transform="matrix(1 0 0 1 786.1239 373.2635)" class="st2 st3">1.7%</text>
	<rect x="824" y="356.1" class="st6" width="43.8" height="25"/>
	<text transform="matrix(1 0 0 1 829.8739 373.2635)" class="st2 st3">NaN%</text>
	<path class="st4" d="M694,393h173c3.3,0,6,2.7,6,6v40c0,3.3-2.7,6-6,6H694c-3.3,0-6-2.7-6-6v-40C688,395.7,690.6,393,694,393z"/>
	<text transform="matrix(1 0 0 1 763.7227 409.0479)" class="st2 st3">TLE4</text>
	<rect x="693" y="415" class="st8" width="43.8" height="25"/>
	<text transform="matrix(1 0 0 1 698.8286 432.2146)" class="st2 st3">2.4%</text>
	<rect x="736.7" y="415" class="st9" width="43.8" height="25"/>
	<text transform="matrix(1 0 0 1 742.5786 432.2146)" class="st2 st3">0.7%</text>
	<rect x="780.5" y="415" class="st10" width="43.8" height="25"/>
	<text transform="matrix(1 0 0 1 782.3286 432.2146)" class="st2 st3">&lt;0.5%</text>
	<rect x="824.2" y="415" class="st10" width="43.8" height="25"/>
	<text transform="matrix(1 0 0 1 826.0786 432.2146)" class="st2 st3">&lt;0.5%</text>
	<path class="st4" d="M200.3,247.9h173c3.3,0,6,2.7,6,6v40c0,3.3-2.7,6-6,6h-173c-3.3,0-6-2.7-6-6v-40
		C194.3,250.6,197,247.9,200.3,247.9z"/>
	<text transform="matrix(1 0 0 1 272.4255 263.9292)" class="st2 st3">APC</text>
	<rect x="199.3" y="269.9" class="st11" width="43.8" height="25"/>
	<text transform="matrix(1 0 0 1 205.1936 287.0959)" class="st2 st3">2.8%</text>
	<rect x="243.1" y="269.9" class="st7" width="43.7" height="25"/>
	<text transform="matrix(1 0 0 1 248.9436 287.0959)" class="st2 st3">1.7%</text>
	<rect x="286.8" y="269.9" class="st8" width="43.8" height="25"/>
	<text transform="matrix(1 0 0 1 292.6936 287.0959)" class="st2 st3">2.4%</text>
	<rect x="330.6" y="269.9" class="st7" width="43.8" height="25"/>
	<text transform="matrix(1 0 0 1 336.4436 287.0959)" class="st2 st3">1.7%</text>
	<path class="st4" d="M435.9,37.6h173c3.3,0,6,2.7,6,6v40c0,3.3-2.7,6-6,6h-173c-3.3,0-6-2.7-6-6v-40
		C429.9,40.3,432.5,37.6,435.9,37.6z"/>
	<text transform="matrix(1 0 0 1 482.4182 68.5879)" class="st2 st3">WNT ligands</text>
	<path class="st4" d="M687.8,239.6h173c3.3,0,6,2.7,6,6v40c0,3.3-2.7,6-6,6h-173c-3.3,0-6-2.7-6-6v-40
		C681.8,242.3,684.4,239.6,687.8,239.6z"/>
	<text transform="matrix(1 0 0 1 750.1362 255.6354)" class="st2 st3">AMER1</text>
	<rect x="686.8" y="261.6" class="st7" width="43.8" height="25"/>
	<text transform="matrix(1 0 0 1 692.6284 278.8021)" class="st2 st3">1.7%</text>
	<rect x="730.5" y="261.6" class="st9" width="43.8" height="25"/>
	<text transform="matrix(1 0 0 1 736.3784 278.8021)" class="st2 st3">0.7%</text>
	<rect x="774.3" y="261.6" class="st12" width="43.8" height="25"/>
	<text transform="matrix(1 0 0 1 780.1284 278.8021)" class="st2 st3">2.1%</text>
	<rect x="818" y="261.6" class="st13" width="43.8" height="25"/>
	<text transform="matrix(1 0 0 1 823.8784 278.8021)" class="st2 st3">1.0%</text>
	<rect x="427.6" y="136.9" class="st4" width="196" height="63"/>
	<text transform="matrix(1 0 0 1 433.5208 215.9411)" class="st2 st3">WNT Dual Receptor Complex</text>
	<path class="st4" d="M439.1,142.4h173c3.3,0,6,2.7,6,6v40c0,3.3-2.7,6-6,6h-173c-3.3,0-6-2.7-6-6v-40
		C433.1,145.1,435.8,142.4,439.1,142.4z"/>
	<text transform="matrix(1 0 0 1 508.0769 158.4411)" class="st2 st3">LRP5</text>
	<rect x="438.1" y="164.4" class="st14" width="43.8" height="25"/>
	<text transform="matrix(1 0 0 1 443.9622 181.6077)" class="st2 st3">1.7%</text>
	<rect x="481.8" y="164.4" class="st14" width="43.8" height="25"/>
	<text transform="matrix(1 0 0 1 487.7122 181.6077)" class="st2 st3">1.7%</text>
	<rect x="525.6" y="164.4" class="st15" width="43.8" height="25"/>
	<text transform="matrix(1 0 0 1 531.4622 181.6077)" class="st2 st3">1.0%</text>
	<rect x="569.3" y="164.4" class="st15" width="43.8" height="25"/>
	<text transform="matrix(1 0 0 1 575.2122 181.6077)" class="st2 st3">1.0%</text>
	<rect x="459.3" y="504.4" class="st16" width="132" height="24"/>
	<text transform="matrix(1 0 0 1 474.7113 521.4336)" class="st2 st3">Cell proliferation</text>
	<rect x="427.7" y="363.1" class="st4" width="196" height="63"/>
	<text transform="matrix(1 0 0 1 497.3043 442.1281)" class="st2 st3">TCF/LEF</text>
	<path class="st4" d="M439.2,368.6h173c3.3,0,6,2.7,6,6v40c0,3.3-2.7,6-6,6h-173c-3.3,0-6-2.7-6-6v-40
		C433.2,371.3,435.9,368.6,439.2,368.6z"/>
	<text transform="matrix(1 0 0 1 512.087 399.6281)" class="st2 st3">TCF</text>
	<path class="st4" d="M203.4,142.2h173c3.3,0,6,2.7,6,6v40c0,3.3-2.7,6-6,6h-173c-3.3,0-6-2.7-6-6v-40
		C197.4,144.9,200.1,142.2,203.4,142.2z"/>
	<text transform="matrix(1 0 0 1 267.7101 158.1681)" class="st2 st3">RNF43</text>
	<rect x="202.4" y="164.2" class="st17" width="43.8" height="25"/>
	<text transform="matrix(1 0 0 1 208.2574 181.3348)" class="st2 st3">3.8%</text>
	<rect x="246.1" y="164.2" class="st13" width="43.8" height="25"/>
	<text transform="matrix(1 0 0 1 252.0074 181.3348)" class="st2 st3">1.0%</text>
	<rect x="289.9" y="164.2" class="st7" width="43.8" height="25"/>
	<text transform="matrix(1 0 0 1 295.7574 181.3348)" class="st2 st3">1.7%</text>
	<rect x="333.6" y="164.2" class="st13" width="43.8" height="25"/>
	<text transform="matrix(1 0 0 1 339.5074 181.3348)" class="st2 st3">1.0%</text>
	<path class="st4" d="M438.6,245.5h173c3.3,0,6,2.7,6,6v40c0,3.3-2.7,6-6,6h-173c-3.3,0-6-2.7-6-6v-40
		C432.6,248.2,435.3,245.5,438.6,245.5z"/>
	<text transform="matrix(1 0 0 1 497.1164 261.496)" class="st2 st3">CTNNB1</text>
	<rect x="437.6" y="267.5" class="st18" width="43.8" height="25"/>
	<text transform="matrix(1 0 0 1 443.4948 284.6627)" class="st2 st3">3.1%</text>
	<rect x="481.4" y="267.5" class="st14" width="43.8" height="25"/>
	<text transform="matrix(1 0 0 1 487.2448 284.6627)" class="st2 st3">1.7%</text>
	<rect x="525.1" y="267.5" class="st15" width="43.8" height="25"/>
	<text transform="matrix(1 0 0 1 530.9948 284.6627)" class="st2 st3">1.0%</text>
	<rect x="568.9" y="267.5" class="st15" width="43.8" height="25"/>
	<text transform="matrix(1 0 0 1 574.7448 284.6627)" class="st2 st3">1.0%</text>
	<line class="st19" x1="625.6" y1="388.6" x2="625.8" y2="396.6"/>
	<line class="st20" x1="682.2" y1="391.5" x2="625.7" y2="392.6"/>
	<polygon points="520.4,129.1 528.4,128.8 524.6,136.9 	"/>
	<line class="st20" x1="523.2" y1="89.6" x2="524.4" y2="128.9"/>
	<line class="st19" x1="430.7" y1="276.5" x2="430.6" y2="268.5"/>
	<line class="st20" x1="379.3" y1="273" x2="430.6" y2="272.5"/>
	<line class="st19" x1="619.5" y1="265.3" x2="619.7" y2="273.3"/>
	<line class="st20" x1="681.8" y1="267.8" x2="619.6" y2="269.3"/>
	<polygon points="521.4,496.4 529.4,496.4 525.3,504.4 	"/>
	<line class="st20" x1="525.6" y1="426.1" x2="525.4" y2="496.4"/>
	<line class="st19" x1="521.2" y1="243.5" x2="529.2" y2="243.5"/>
	<line class="st20" x1="525.5" y1="194.4" x2="525.2" y2="243.5"/>
	<line class="st19" x1="625.6" y1="164.5" x2="625.6" y2="172.5"/>
	<line class="st20" x1="673.6" y1="168.5" x2="625.6" y2="168.5"/>
	<line class="st19" x1="425.6" y1="172.3" x2="425.6" y2="164.3"/>
	<line class="st20" x1="382.4" y1="168.3" x2="425.6" y2="168.3"/>
	<line class="st19" x1="521.5" y1="361.1" x2="529.5" y2="361.1"/>
	<line class="st20" x1="525.2" y1="297.5" x2="525.5" y2="361.1"/>
	<text transform="matrix(1 0 0 1 197.3824 34.8898)" class="st21 st22">Wnt pathway</text>
</g>
</svg>
